<?xml version="1.0" standalone="no"?>
<!DOCTYPE svg PUBLIC "-//W3C//DTD SVG 20010904//EN"
 "http://www.w3.org/TR/2001/REC-SVG-20010904/DTD/svg10.dtd">
<svg version="1.0" xmlns="http://www.w3.org/2000/svg"
 width="658.000000pt" height="658.000000pt" viewBox="0 0 658.000000 658.000000"
 preserveAspectRatio="xMidYMid meet">

<g transform="translate(0.000000,658.000000) scale(0.100000,-0.100000)"
fill="#000000" stroke="none">
<path d="M0 3771 c0 -1925 3 -2812 10 -2816 15 -9 224 -7 375 5 129 10 166 18
240 50 22 10 72 27 110 39 39 12 79 27 90 34 11 6 60 12 110 13 100 1 118 6
190 58 27 20 61 36 75 36 14 0 50 -17 80 -37 30 -21 61 -38 69 -39 16 -3 257
94 344 137 109 55 318 183 362 221 88 78 194 409 211 658 3 58 8 108 10 111 1
3 6 39 9 80 12 160 15 178 35 184 37 12 37 50 -1 195 -21 85 -44 140 -56 140
-4 0 -16 -9 -27 -19 -31 -28 -94 -61 -117 -61 -30 0 -111 44 -140 78 -33 36
-81 136 -107 222 -47 154 -56 186 -59 205 -1 11 -9 43 -17 70 -7 28 -21 91
-30 140 -16 88 -16 92 4 150 11 33 29 79 40 102 11 24 20 47 20 53 0 5 5 10
10 10 6 0 10 7 10 15 0 22 41 90 77 128 37 39 80 51 133 37 42 -11 65 -33 74
-72 3 -16 11 -27 17 -25 6 1 16 -14 22 -33 11 -32 16 -35 48 -34 19 0 41 4 49
9 9 5 11 4 6 -3 -4 -7 -1 -12 8 -12 8 0 17 -8 19 -17 3 -10 10 -40 17 -66 8
-30 11 -79 8 -130 -6 -82 -3 -107 12 -107 9 0 38 107 46 169 2 14 12 47 24 75
12 28 26 62 31 76 6 14 21 48 34 75 25 55 51 136 47 148 -1 4 3 7 8 7 6 0 10
11 10 24 0 14 5 28 11 32 6 3 9 19 5 35 -3 15 -1 31 4 34 6 3 10 17 10 30 0
13 5 27 10 30 6 4 8 11 4 16 -3 5 0 17 7 25 6 8 13 24 14 37 4 37 5 38 17 31
8 -5 9 -2 5 9 -4 10 0 20 11 26 9 5 14 13 10 16 -4 4 9 23 28 41 19 19 32 39
29 44 -3 5 5 10 17 12 14 2 30 20 49 56 15 30 34 61 42 70 9 10 17 26 19 37 1
11 9 26 16 34 7 8 11 23 8 35 -6 26 8 51 23 42 21 -13 11 12 -11 26 -21 14
-21 16 -5 38 19 27 22 44 7 35 -15 -9 11 48 28 62 8 6 11 16 8 21 -3 5 1 15 8
22 8 6 18 25 21 41 4 17 11 26 18 22 6 -4 8 0 4 10 -4 11 1 22 13 29 11 7 20
20 21 28 0 10 3 9 8 -4 7 -18 9 -16 19 11 9 26 8 33 -5 37 -14 6 -14 8 1 24 9
10 16 27 17 38 0 18 1 18 9 -1 8 -20 8 -20 16 0 10 26 36 55 49 55 9 0 50 34
120 99 11 10 37 24 58 32 20 7 37 19 37 25 0 8 9 11 20 9 11 -2 18 0 15 5 -3
5 17 12 45 16 27 4 50 10 50 15 0 5 9 9 20 9 12 0 34 7 49 15 16 8 31 12 33 9
8 -7 58 18 53 26 -2 4 6 6 18 6 12 -1 28 3 36 8 8 6 15 9 15 7 1 -2 26 0 56 4
42 6 50 10 35 16 -17 6 -16 8 10 10 17 2 43 2 60 0 27 -2 47 4 97 30 10 5 26
9 35 9 16 0 16 2 3 11 -12 9 -11 9 5 4 11 -4 28 -7 38 -7 11 1 15 -4 10 -11
-4 -8 -1 -7 9 1 20 16 95 7 119 -14 8 -8 23 -14 31 -14 9 0 21 -7 28 -15 7 -8
17 -15 22 -15 6 0 29 -19 52 -41 39 -40 111 -80 169 -94 15 -4 27 -10 27 -14
0 -4 15 -12 33 -19 18 -6 66 -44 106 -84 41 -40 84 -78 95 -84 12 -6 64 -36
116 -66 134 -78 153 -86 113 -51 -17 15 -57 39 -87 53 -31 14 -56 29 -56 33 0
5 5 5 10 2 6 -3 10 -1 10 4 0 11 -19 16 -53 13 -10 -1 -15 3 -12 8 3 6 -2 13
-12 17 -27 10 -117 87 -106 90 6 2 32 -7 59 -21 27 -13 61 -28 77 -31 15 -4
27 -10 27 -14 0 -4 20 -13 46 -20 25 -7 52 -20 60 -28 8 -8 30 -19 49 -24 19
-6 35 -14 35 -20 0 -6 -4 -7 -10 -4 -6 3 -7 -1 -4 -9 3 -9 10 -14 14 -11 4 3
15 -6 24 -20 20 -31 20 -36 -1 -28 -11 4 -14 3 -9 -5 4 -7 14 -12 23 -12 10 0
14 -6 10 -19 -3 -13 6 -25 33 -42 33 -21 36 -27 29 -51 -6 -21 -4 -28 7 -28 8
0 14 -7 14 -16 0 -9 5 -12 12 -8 8 5 9 2 5 -9 -3 -9 1 -23 9 -31 8 -9 14 -17
13 -18 -3 -5 43 -93 59 -110 8 -10 20 -15 26 -11 6 3 8 3 4 -2 -4 -4 -2 -15 4
-23 7 -7 13 -23 15 -35 2 -11 8 -26 14 -34 9 -10 8 -13 -2 -13 -7 0 -3 -11 12
-27 13 -15 16 -21 7 -14 -23 17 -23 3 -1 -28 13 -19 14 -28 4 -42 -6 -11 -7
-19 -2 -19 5 0 11 6 13 12 3 8 9 4 17 -10 10 -18 10 -27 0 -38 -6 -8 -7 -14
-1 -14 5 0 12 -13 15 -30 4 -16 11 -30 17 -30 17 0 37 -24 32 -38 -2 -7 3 -23
12 -37 14 -22 14 -24 -2 -28 -14 -4 -14 -5 -1 -6 18 -1 39 -41 39 -74 0 -13 5
-28 11 -34 9 -9 7 -16 -5 -29 -10 -9 -15 -23 -12 -31 3 -8 6 -19 6 -24 0 -6 4
-7 10 -4 6 3 10 -1 10 -9 0 -8 -5 -18 -10 -21 -8 -5 -8 -11 0 -20 8 -10 7 -14
-7 -18 -15 -3 -13 -6 10 -15 28 -12 39 -26 12 -16 -8 4 -15 2 -15 -4 0 -5 8
-13 17 -16 14 -6 15 -9 3 -16 -10 -6 -11 -12 -3 -22 14 -16 14 -73 1 -60 -9 9
-15 31 -17 59 -1 6 -10 9 -22 6 -12 -3 -18 -11 -15 -19 3 -8 9 -21 12 -30 4
-9 -11 2 -34 24 -22 22 -43 37 -47 34 -8 -9 -75 29 -75 42 0 17 -71 59 -101
60 -15 1 -24 5 -21 10 3 6 -3 6 -14 2 -24 -10 -24 -10 -115 -2 -63 6 -78 5
-89 -8 -9 -12 -16 -13 -25 -6 -8 6 -51 13 -97 16 -131 8 -142 9 -169 28 -21
13 -32 14 -53 6 -15 -5 -37 -9 -49 -9 -28 1 -97 -23 -97 -33 0 -5 -6 -8 -14
-8 -17 0 -30 -35 -20 -51 4 -8 3 -9 -4 -5 -8 5 -12 -2 -12 -18 0 -14 4 -26 9
-26 5 0 7 -10 3 -22 -3 -14 -1 -19 6 -14 7 4 10 -1 7 -14 -3 -14 1 -20 13 -20
11 0 13 -3 5 -8 -17 -10 12 -46 31 -39 10 4 13 1 9 -9 -3 -9 1 -14 12 -14 12
0 15 -4 8 -12 -9 -11 -9 -34 0 -113 5 -39 53 -115 73 -115 3 0 4 15 2 33 -3
32 -2 34 25 31 15 -2 36 -8 47 -14 10 -5 52 -10 92 -10 76 0 184 -19 253 -44
l40 -15 -50 -2 c-27 -1 -58 -2 -67 -1 -11 1 -15 -3 -12 -13 4 -8 11 -15 17
-15 6 0 8 -2 6 -5 -3 -2 -29 2 -59 11 -30 8 -70 17 -89 19 -19 3 -39 9 -45 14
-6 4 -18 9 -26 9 -8 1 -28 4 -45 8 l-30 7 19 -22 c19 -21 19 -21 -3 -21 -13 0
-20 -4 -16 -11 4 -6 13 -8 20 -5 8 3 24 -6 37 -18 13 -13 33 -26 46 -30 12 -4
22 -12 22 -17 0 -6 4 -8 9 -5 5 3 19 -3 32 -13 13 -10 44 -25 69 -34 25 -8 54
-19 64 -23 12 -5 17 -4 13 3 -4 5 19 2 50 -9 55 -18 57 -18 92 0 24 13 43 16
56 11 11 -4 14 -8 6 -8 -8 -1 -12 -3 -10 -6 3 -2 20 0 38 5 27 7 32 7 27 -5
-6 -17 15 -20 31 -4 7 7 9 4 6 -13 -3 -18 0 -24 16 -25 12 -1 21 2 21 7 0 5 7
7 16 3 10 -4 17 1 21 15 4 17 9 19 28 12 19 -7 22 -5 20 15 -3 20 0 23 23 19
22 -4 25 -3 15 7 -18 18 -16 34 1 20 12 -10 14 -8 9 11 -4 22 -4 22 11 4 9
-11 22 -16 31 -12 17 6 35 -28 35 -67 0 -12 1 -60 3 -107 2 -47 -2 -109 -8
-137 -7 -29 -8 -50 -4 -47 5 3 9 -2 9 -11 0 -9 -4 -13 -10 -10 -14 9 -13 -8 2
-23 9 -9 8 -12 -5 -12 -9 0 -18 -7 -18 -15 -1 -15 -4 -28 -9 -42 -1 -5 -2 -11
-1 -15 0 -5 -4 -7 -11 -5 -7 1 -12 -4 -13 -10 0 -7 -12 -24 -28 -39 -15 -14
-25 -29 -22 -35 4 -5 -1 -9 -9 -9 -9 0 -16 -6 -16 -12 0 -9 -4 -8 -10 2 -6 10
-8 2 -4 -28 4 -32 1 -44 -10 -48 -12 -5 -13 -11 -6 -25 8 -15 7 -17 -5 -13
-15 6 -17 2 -18 -48 -1 -16 -4 -28 -9 -28 -4 0 -5 -7 -2 -15 4 -8 1 -15 -5
-15 -6 0 -11 -7 -11 -15 0 -8 -4 -15 -10 -15 -5 0 -10 -6 -10 -14 0 -18 -98
-116 -116 -116 -8 0 -13 -3 -13 -7 3 -21 -2 -33 -15 -33 -16 0 -29 -27 -20
-41 3 -5 9 -7 14 -4 5 3 12 -6 16 -20 4 -18 15 -28 35 -32 16 -3 29 -9 29 -14
0 -5 13 -9 28 -9 41 0 56 -33 47 -101 -6 -46 -14 -59 -61 -106 -88 -89 -170
-108 -225 -54 -24 24 -29 38 -29 75 0 26 5 46 11 46 6 0 7 5 2 13 -7 12 -9 17
-11 50 -1 9 -8 17 -16 17 -17 0 -26 22 -26 64 0 18 -5 37 -11 43 -9 9 -7 10
10 6 15 -4 21 -1 21 11 0 9 -4 16 -10 16 -5 0 -10 6 -10 13 0 8 -11 19 -25 25
-38 17 -43 14 -16 -9 13 -11 21 -22 18 -26 -4 -3 -23 12 -43 33 -20 21 -33 33
-29 27 10 -20 0 -15 -33 17 -30 28 -60 41 -47 21 9 -16 -15 -23 -32 -9 -9 7
-30 13 -47 13 -27 0 -31 4 -34 28 -3 25 -7 28 -28 23 -18 -5 -24 -2 -24 9 0
10 -5 13 -12 9 -7 -4 -8 -3 -4 5 5 7 -3 20 -19 33 -16 13 -24 26 -20 36 3 8 1
19 -6 22 -13 9 9 50 27 50 14 0 78 70 70 77 -3 4 -1 12 5 20 7 8 8 13 1 13 -8
0 -27 48 -22 58 0 1 -7 10 -16 20 -21 21 -82 42 -100 35 -8 -3 -14 -1 -14 5 0
6 -21 4 -55 -3 -36 -9 -55 -10 -55 -3 0 6 -9 8 -20 5 -11 -3 -23 0 -27 5 -4 7
-1 8 7 3 8 -5 11 -4 6 3 -3 6 -14 11 -24 11 -9 0 -30 3 -45 7 -19 4 -33 1 -45
-9 -17 -16 -45 -17 -58 -4 -4 4 -17 7 -29 7 -12 0 -30 7 -41 15 -10 8 -27 15
-36 15 -10 0 -18 4 -18 8 0 13 -122 15 -151 3 -13 -6 -49 -33 -79 -60 l-55
-50 22 -21 c45 -41 128 -55 140 -22 14 36 25 39 73 25 25 -7 46 -13 48 -12 12
5 91 -28 88 -37 -2 -6 1 -17 7 -24 9 -10 9 -14 0 -17 -7 -2 -9 -11 -6 -20 4
-10 2 -14 -5 -9 -7 4 -9 -3 -7 -21 2 -16 2 -22 -1 -16 -4 9 -11 10 -23 3 -13
-6 -18 -5 -18 5 0 7 6 11 14 8 7 -3 13 0 13 6 0 6 -7 11 -15 11 -8 0 -15 9
-15 20 0 13 -5 18 -15 14 -10 -4 -13 -13 -10 -25 5 -15 1 -19 -18 -19 -21 0
-23 -4 -19 -30 5 -33 28 -36 25 -4 -1 18 -1 18 11 2 7 -10 17 -14 21 -10 5 4
5 2 2 -4 -4 -7 0 -17 9 -24 8 -7 13 -19 10 -26 -3 -7 5 -23 18 -37 18 -20 33
-24 83 -26 46 -1 62 2 66 14 4 9 13 12 24 8 35 -12 103 -58 103 -70 0 -6 14
-15 32 -18 49 -11 104 -46 92 -58 -4 -3 3 -16 15 -28 12 -13 21 -26 21 -31 0
-13 -27 -9 -39 6 -24 29 -135 78 -176 78 -73 -1 -103 -7 -124 -26 -20 -18 -27
-13 -22 17 0 4 -10 7 -24 7 -16 0 -25 -6 -25 -15 0 -8 -5 -15 -11 -15 -5 0 -7
5 -3 11 4 7 0 9 -14 5 -11 -4 -23 -2 -27 4 -11 18 -39 10 -58 -15 -11 -15 -13
-23 -5 -20 7 3 19 -4 26 -15 7 -11 8 -20 3 -20 -5 0 -12 -9 -16 -19 -6 -20
-62 -35 -72 -19 -3 6 -16 7 -29 4 -14 -4 -33 -2 -44 4 -11 6 -20 7 -20 2 0 -6
-15 -10 -32 -10 -18 0 -68 -2 -110 -5 -43 -2 -75 -1 -72 4 3 5 13 9 22 9 9 1
35 8 57 16 22 9 47 17 56 18 31 4 79 29 73 37 -3 5 4 9 15 9 11 0 23 5 26 10
9 14 68 13 83 -2 10 -10 15 -8 27 5 8 9 10 13 3 7 -8 -6 -15 -3 -22 12 -12 22
-56 36 -56 17 0 -7 -11 -9 -30 -6 -19 4 -34 1 -44 -8 -8 -8 -25 -15 -38 -15
-13 0 -54 -9 -93 -20 -165 -47 -179 -50 -189 -40 -6 6 -18 10 -27 10 -25 0
-32 16 -14 33 19 20 19 31 0 47 -9 7 -14 19 -11 26 4 10 0 11 -18 2 -17 -7
-30 -7 -42 0 -22 12 -63 -8 -83 -40 -10 -17 -9 -22 6 -34 13 -9 14 -13 4 -14
-11 0 -11 -3 -1 -15 9 -11 16 -12 25 -5 9 7 19 5 35 -8 l23 -19 -31 2 c-24 1
-29 -1 -21 -11 6 -8 7 -13 0 -16 -6 -1 -13 -18 -17 -35 -6 -28 -3 -34 17 -42
19 -7 29 -4 49 14 15 13 33 21 45 18 11 -3 79 -4 150 -4 72 0 172 -4 224 -9
52 -6 162 -15 245 -20 83 -6 166 -15 184 -21 31 -10 59 -14 124 -18 15 0 33
-7 40 -13 7 -7 25 -14 41 -16 24 -2 68 -21 135 -55 24 -13 29 -32 9 -40 -6 -3
-2 -6 11 -6 12 -1 25 -7 28 -15 3 -8 12 -12 20 -9 8 3 14 0 14 -6 0 -6 10 -11
23 -11 43 0 104 -79 120 -155 3 -16 4 -24 1 -17 -3 6 -10 12 -15 12 -6 0 -7
-5 -4 -10 3 -6 1 -10 -5 -10 -7 0 -10 -6 -7 -13 5 -13 -30 -43 -45 -39 -5 1
-8 -1 -9 -5 0 -5 -3 -24 -6 -43 -2 -19 -5 -42 -5 -50 -1 -8 -5 -18 -10 -21 -5
-3 -5 -17 1 -32 9 -22 7 -27 -10 -32 -20 -7 -20 -7 3 -33 12 -14 17 -22 11
-18 -8 4 -13 1 -13 -8 0 -9 -6 -15 -12 -14 -8 2 -12 -6 -10 -20 3 -21 -9 -28
-46 -23 -7 1 -12 -4 -11 -11 4 -31 -2 -39 -23 -36 -13 2 -22 8 -21 14 1 6 -5
11 -13 11 -17 0 -18 -9 -2 -26 11 -11 9 -13 -10 -8 -17 4 -22 2 -19 -8 4 -9
-1 -11 -14 -8 -18 5 -27 23 -11 23 4 0 7 11 7 24 0 13 -3 22 -7 19 -5 -2 -8
-12 -8 -21 0 -12 -9 -18 -25 -20 -14 -1 -25 3 -25 9 0 18 -40 48 -56 42 -16
-6 -46 26 -37 41 3 4 -14 -3 -39 -18 -52 -30 -66 -33 -47 -9 11 12 11 17 2 20
-10 4 -10 7 0 18 7 7 15 11 20 8 4 -2 7 0 7 6 0 5 -9 13 -20 16 -13 4 -20 15
-20 32 0 19 -4 24 -16 19 -9 -3 -23 -6 -32 -6 -13 0 -11 -5 8 -20 14 -11 21
-20 15 -20 -5 0 -3 -4 5 -10 12 -8 12 -10 -3 -15 -9 -4 -23 0 -32 9 -18 18
-55 22 -55 6 0 -5 -16 -10 -36 -10 -19 0 -33 -4 -30 -9 3 -5 0 -14 -8 -20 -10
-9 -15 -8 -20 4 -3 9 -11 13 -18 9 -7 -5 -9 -2 -5 8 7 20 -22 35 -91 48 -30 5
-58 12 -63 15 -5 4 -9 2 -9 -3 0 -5 10 -14 23 -21 21 -11 5 -8 -28 5 -8 3 -15
1 -15 -5 0 -6 7 -11 16 -11 8 0 12 -5 9 -10 -4 -7 -12 -7 -25 0 -13 7 -21 7
-25 0 -3 -6 1 -13 9 -16 9 -3 16 -10 16 -14 0 -9 -5 -8 -75 8 -52 11 -71 6
-53 -15 11 -14 10 -15 -10 -9 -17 6 -21 4 -16 -8 3 -9 1 -16 -5 -16 -6 0 -11
9 -11 20 0 24 -8 25 -31 4 -22 -20 -88 -35 -108 -24 -10 5 -20 1 -32 -13 -9
-12 -30 -22 -45 -23 -16 -1 -32 -3 -36 -3 -14 -2 -3 -26 17 -38 12 -7 15 -12
6 -13 -7 0 -11 -6 -9 -12 5 -14 -27 -50 -36 -41 -6 7 -8 -2 -8 -42 0 -42 1
-46 16 -43 14 3 16 0 16 -20 0 -5 -21 -10 -47 -10 -29 -1 -52 -8 -59 -17 -6
-8 -15 -11 -19 -7 -5 4 11 -19 34 -51 23 -31 39 -62 36 -67 -4 -6 1 -13 10
-16 9 -4 14 -13 11 -20 -3 -9 0 -11 11 -7 11 4 14 2 9 -5 -4 -7 -1 -12 7 -12
21 0 46 -32 29 -37 -6 -3 -9 -9 -6 -14 3 -6 12 -5 22 3 15 11 15 11 4 -4 -11
-13 -11 -21 0 -40 7 -13 17 -26 22 -29 5 -4 6 -11 2 -17 -3 -6 3 -14 15 -17
14 -5 18 -10 11 -17 -6 -6 -1 -19 14 -35 23 -25 23 -27 8 -45 -16 -16 -16 -18
-1 -18 10 0 14 -6 11 -14 -3 -8 -1 -17 5 -21 14 -8 14 -25 0 -25 -5 0 -7 4 -4
10 3 6 -1 7 -9 4 -12 -5 -13 -10 -5 -26 6 -11 8 -22 5 -26 -3 -3 -6 0 -6 7 0
6 -12 0 -26 -14 -14 -15 -32 -24 -39 -21 -7 2 -16 -2 -19 -10 -4 -10 -1 -13 7
-9 6 4 1 -2 -12 -13 -13 -10 -21 -24 -17 -30 3 -6 -1 -17 -10 -26 -8 -9 -12
-20 -9 -26 3 -6 -7 -18 -24 -28 -17 -9 -31 -21 -31 -25 0 -5 5 -5 10 -2 5 3
10 2 10 -2 0 -5 -9 -14 -21 -21 -15 -10 -18 -16 -10 -26 8 -9 5 -12 -12 -12
-15 1 -21 -4 -19 -16 2 -11 -4 -15 -15 -14 -22 4 -47 -20 -40 -38 4 -10 -1
-12 -16 -8 -18 5 -20 3 -10 -9 7 -9 8 -20 3 -29 -7 -12 -11 -12 -26 1 -13 10
-16 10 -10 1 5 -9 1 -15 -14 -19 -13 -3 -19 -11 -16 -19 3 -8 1 -14 -4 -14 -5
0 -12 -10 -15 -21 -6 -17 -9 -19 -16 -8 -5 8 -9 10 -10 4 -5 -28 -4 -41 4 -46
5 -4 1 -15 -10 -26 -11 -11 -17 -25 -15 -31 2 -7 -5 -12 -15 -12 -13 0 -14 -3
-5 -8 9 -6 5 -12 -15 -22 -16 -8 -40 -27 -54 -42 -14 -15 -29 -25 -33 -21 -3
4 -28 7 -55 8 -42 1 -48 -1 -43 -17 4 -17 35 -18 662 -18 l658 0 63 46 c77 55
137 117 162 165 21 41 25 100 13 210 -5 44 -4 79 1 82 11 7 155 -65 156 -78 1
-5 19 -25 40 -42 21 -18 35 -33 31 -33 -5 0 2 -7 14 -16 12 -8 22 -21 22 -28
0 -7 12 -13 30 -13 16 0 27 4 25 8 -7 10 37 -1 53 -14 6 -5 12 -22 12 -38 0
-21 4 -27 15 -23 8 4 15 1 15 -5 0 -6 6 -11 14 -11 8 0 18 -4 21 -10 4 -7 -3
-7 -20 0 -34 13 -35 13 -28 -6 5 -14 3 -15 -15 -5 -16 9 -19 18 -16 50 3 30 0
39 -9 35 -15 -5 -20 -44 -6 -44 6 0 7 -5 4 -11 -4 -5 1 -19 10 -29 9 -10 15
-28 12 -42 -4 -20 -4 -20 -6 5 -1 21 -5 28 -18 25 -14 -3 -18 -13 -17 -41 1
-25 -3 -37 -12 -37 -10 0 -9 -9 6 -35 24 -43 24 -46 5 -39 -9 4 -15 0 -15 -10
0 -12 10 -16 35 -16 19 0 35 5 35 10 0 6 -5 10 -11 10 -6 0 -9 6 -6 13 2 6 12
11 22 9 13 -3 16 1 12 12 -4 9 -3 15 1 15 19 -3 23 2 12 16 -9 10 -9 15 -1 15
15 0 14 57 -2 63 -21 8 0 19 23 12 15 -5 19 -10 12 -17 -18 -18 16 -74 39 -66
8 3 7 9 -3 19 -9 8 -17 31 -20 51 -3 31 -1 35 12 28 8 -4 24 -18 34 -29 11
-12 26 -21 35 -20 10 0 8 3 -7 9 -40 17 -23 18 31 3 28 -9 56 -19 62 -24 5 -5
16 -9 26 -9 18 0 96 -29 174 -65 28 -13 60 -26 73 -30 12 -3 22 -11 22 -16 0
-5 237 -9 605 -9 l605 0 0 3290 0 3290 -3290 0 -3290 0 0 -2809z m4610 1565
c0 -3 -4 -8 -10 -11 -5 -3 -10 -1 -10 4 0 6 5 11 10 11 6 0 10 -2 10 -4z m798
-1491 c15 -33 15 -42 0 -27 -16 16 -62 16 -52 0 4 -6 3 -8 -4 -5 -5 4 -8 16
-5 26 4 17 15 24 44 30 3 0 11 -10 17 -24z m-3208 5 c0 -5 -2 -10 -4 -10 -3 0
-8 5 -11 10 -3 6 -1 10 4 10 6 0 11 -4 11 -10z m3213 -52 c28 -14 33 -23 17
-33 -5 -3 -10 -1 -10 4 0 6 -6 11 -14 11 -7 0 -19 7 -26 15 -15 18 -3 19 33 3z
m74 -14 c-9 -9 -28 6 -21 18 4 6 10 6 17 -1 6 -6 8 -13 4 -17z m-12 -24 c3 -6
-1 -7 -9 -4 -18 7 -21 14 -7 14 6 0 13 -4 16 -10z m-80 -10 c3 -5 1 -10 -4
-10 -6 0 -11 5 -11 10 0 6 2 10 4 10 3 0 8 -4 11 -10z m63 -35 c-3 -3 -9 2
-12 12 -6 14 -5 15 5 6 7 -7 10 -15 7 -18z m-53 -5 c3 -5 -1 -10 -9 -10 -8 0
-18 5 -21 10 -3 6 1 10 9 10 8 0 18 -4 21 -10z m70 -51 c11 -16 1 -19 -13 -3
-7 8 -8 14 -3 14 5 0 13 -5 16 -11z m-3 -74 c-7 -15 -9 -31 -6 -37 4 -7 2 -8
-5 -4 -6 4 -9 16 -6 27 4 13 2 19 -9 19 -20 0 -29 17 -15 26 8 5 9 3 4 -6 -6
-10 -4 -12 8 -7 9 3 18 1 21 -6 4 -7 4 -1 2 12 -4 18 -2 21 6 13 9 -9 8 -18 0
-37z m-762 25 c0 -5 -4 -10 -9 -10 -6 0 -13 5 -16 10 -3 6 1 10 9 10 9 0 16
-4 16 -10z m299 -59 c-15 -5 -22 6 -14 19 6 9 10 9 16 -1 5 -8 4 -15 -2 -18z
m65 -94 c3 4 6 1 6 -6 0 -16 -42 -30 -61 -20 -9 4 -20 5 -24 1 -5 -4 -5 -1 -1
6 4 7 1 12 -8 13 -9 1 -20 3 -26 4 -5 1 -14 3 -20 4 -5 0 -10 5 -10 10 0 17
35 17 87 0 28 -10 54 -15 57 -12z m556 -405 c6 -20 13 -57 16 -82 3 -25 10
-63 14 -84 5 -22 6 -44 3 -49 -3 -5 1 -13 8 -18 11 -7 12 -12 1 -29 -7 -11 -8
-20 -3 -20 4 0 -2 -21 -15 -47 -13 -25 -24 -55 -24 -64 0 -36 -43 -105 -91
-144 -26 -22 -48 -45 -48 -51 -2 -21 -45 -36 -74 -25 -27 10 -36 34 -17 46 6
3 10 15 10 26 0 11 4 18 9 15 5 -3 12 1 15 10 3 8 11 12 17 9 6 -4 13 2 16 13
3 11 12 23 20 26 9 4 11 2 7 -6 -4 -7 -3 -8 4 -4 7 4 12 16 12 27 0 11 5 17
10 14 6 -3 10 3 10 14 0 12 5 21 10 21 6 0 10 7 10 15 0 8 6 15 14 15 15 0 29
25 29 55 1 11 5 23 9 26 5 3 2 19 -7 35 -8 16 -12 36 -10 45 6 18 -5 31 -49
63 -32 23 -32 60 -1 91 11 11 26 32 33 48 6 15 16 27 22 27 5 0 9 3 9 8 -6 39
18 19 31 -26z m90 -137 c0 -30 -4 -56 -9 -59 -13 -8 -22 53 -11 74 5 10 7 26
3 36 -4 12 -3 15 5 10 7 -4 12 -31 12 -61z m-1610 -246 c0 -6 -4 -7 -10 -4 -5
3 -10 11 -10 16 0 6 5 7 10 4 6 -3 10 -11 10 -16z m620 -255 c0 -8 -5 -12 -10
-9 -6 4 -8 11 -5 16 9 14 15 11 15 -7z m716 -79 c1 -13 -2 -27 -7 -30 -5 -4
-9 -1 -9 6 0 7 -3 10 -6 7 -3 -4 0 -16 6 -28 14 -26 1 -43 -40 -55 -25 -7 -25
-7 -5 10 11 9 14 14 8 10 -9 -4 -13 4 -13 29 0 23 5 36 13 36 8 0 20 11 27 25
15 28 22 26 26 -10z m-926 10 c-11 -14 -10 -14 13 -6 21 8 25 7 21 -3 -6 -16
-42 -28 -49 -16 -7 12 5 40 17 40 6 0 5 -7 -2 -15z m-410 -25 c0 -5 -4 -10
-10 -10 -5 0 -10 5 -10 10 0 6 5 10 10 10 6 0 10 -4 10 -10z m217 -14 c0 -8
-11 -19 -23 -25 -19 -8 -22 -7 -17 5 4 10 1 12 -13 7 -12 -4 -15 -3 -10 6 5 7
14 10 22 7 7 -3 16 -1 19 4 9 15 22 12 22 -4z m-94 -7 c9 0 17 -4 17 -9 0 -18
-16 -18 -50 2 -26 14 -29 18 -10 13 14 -4 33 -7 43 -6z m217 -39 c0 -5 8 -7
18 -3 9 3 14 3 10 -2 -4 -4 -3 -14 3 -21 6 -7 6 -14 1 -18 -6 -3 -13 1 -16 10
-3 8 -10 12 -16 9 -9 -6 -40 17 -40 29 0 3 9 6 20 6 11 0 20 -4 20 -10z m-440
-692 c0 -6 -6 -5 -15 2 -8 7 -15 14 -15 16 0 2 7 1 15 -2 8 -4 15 -11 15 -16z
m850 -1438 c0 -5 -5 -10 -11 -10 -5 0 -7 5 -4 10 3 6 8 10 11 10 2 0 4 -4 4
-10z m-60 -10 c0 -5 -2 -10 -4 -10 -3 0 -8 5 -11 10 -3 6 -1 10 4 10 6 0 11
-4 11 -10z"/>
<path d="M4930 5140 c0 -5 7 -10 16 -10 8 0 12 5 9 10 -3 6 -10 10 -16 10 -5
0 -9 -4 -9 -10z"/>
<path d="M3377 4276 c4 -18 0 -25 -20 -30 -14 -3 -33 -3 -43 1 -11 4 -15 3
-11 -4 6 -10 -26 -21 -75 -26 -14 -1 -15 -4 -5 -16 10 -12 6 -13 -28 -7 -25 4
-35 3 -26 -2 12 -9 -35 -21 -91 -23 -19 0 -26 -19 -8 -19 17 0 11 -20 -7 -27
-35 -13 -45 -44 -11 -35 16 4 19 2 13 -8 -6 -10 -4 -12 9 -7 19 7 38 -7 49
-35 4 -11 1 -19 -6 -20 -7 0 -17 -2 -22 -2 -15 -2 -140 -128 -148 -148 -4 -10
-2 -18 4 -18 6 0 9 -7 5 -15 -3 -8 0 -16 7 -16 24 -3 73 0 110 5 29 5 37 3 37
-9 0 -9 9 -15 21 -15 17 0 20 4 15 24 -6 23 -4 23 44 20 27 -2 52 1 55 6 10
16 42 12 49 -5 10 -27 72 -45 163 -47 l88 -3 24 48 c13 26 29 47 36 47 7 0 23
-16 35 -36 20 -31 21 -39 9 -60 -8 -15 -18 -23 -27 -19 -12 4 -13 3 -2 -10 8
-10 17 -12 24 -6 7 6 17 6 26 0 21 -13 181 -9 179 5 -1 6 -1 26 0 45 l1 35 20
-22 c19 -20 57 -21 44 -1 -3 5 0 9 6 9 6 0 10 8 9 18 -4 41 1 50 24 45 12 -3
19 -2 15 2 -15 16 42 47 91 48 27 1 49 5 48 9 -1 4 6 13 15 20 24 19 28 81 5
86 -9 2 -32 17 -49 33 -35 31 -53 38 -45 15 8 -21 -34 -8 -58 19 -11 12 -26
20 -32 18 -7 -3 -13 0 -13 6 0 6 -6 11 -14 11 -8 0 -16 5 -18 10 -2 6 -44 15
-93 21 -124 15 -154 20 -195 36 -8 4 -17 7 -20 8 -3 1 -13 5 -24 10 -11 5 -21
3 -26 -4 -5 -9 -9 -8 -14 4 -4 12 -14 16 -33 12 -15 -3 -32 1 -40 9 -7 7 -19
11 -27 8 -7 -3 -19 2 -26 11 -18 22 -28 19 -23 -9z m105 -247 c21 -11 21 -12
-3 -25 -13 -7 -46 -14 -74 -14 -27 0 -86 -12 -130 -26 -44 -14 -87 -23 -97
-21 -10 3 -21 1 -24 -4 -3 -5 -14 -9 -24 -9 -52 0 30 60 125 92 58 19 196 24
227 7z"/>
<path d="M5418 3936 c-3 -16 -1 -23 7 -19 7 2 11 13 8 24 -7 25 -10 24 -15 -5z"/>
<path d="M1933 3838 c-13 -6 -23 -17 -23 -25 0 -8 -4 -11 -10 -8 -5 3 -10 -2
-10 -11 0 -10 -13 -54 -29 -98 -42 -119 -45 -143 -18 -157 18 -9 20 -9 10 1
-9 10 -6 22 15 54 15 22 30 43 35 44 4 2 7 12 7 22 0 10 3 20 8 22 4 2 18 25
31 51 15 30 35 53 50 59 l26 10 -28 24 c-31 27 -33 27 -64 12z"/>
<path d="M3170 3732 c0 -11 66 -42 88 -41 14 0 14 2 2 6 -8 3 -18 10 -21 15
-3 5 -16 10 -27 11 -12 1 -22 5 -22 9 0 4 -4 8 -10 8 -5 0 -10 -4 -10 -8z"/>
<path d="M2115 3690 c10 -11 20 -20 22 -20 2 0 -2 9 -9 20 -7 11 -17 20 -22
20 -5 0 -1 -9 9 -20z"/>
<path d="M3582 3705 c4 -6 -24 -11 -75 -12 -45 0 -89 -3 -97 -5 -8 -3 -27 -8
-42 -13 -16 -4 -28 -11 -28 -16 0 -10 137 -16 170 -7 14 4 52 12 85 19 43 9
53 14 35 17 -14 2 -31 9 -39 15 -8 7 -12 8 -9 2z"/>
<path d="M3288 3693 c6 -2 18 -2 25 0 6 3 1 5 -13 5 -14 0 -19 -2 -12 -5z"/>
<path d="M3321 3681 c-8 -5 -9 -11 -3 -15 5 -3 15 1 22 9 14 16 3 20 -19 6z"/>
<path d="M1820 3510 c0 -11 4 -20 9 -20 17 0 19 15 5 28 -12 11 -14 9 -14 -8z"/>
<path d="M2160 3511 c-8 -5 -33 -12 -55 -16 -51 -9 -58 -14 -45 -30 8 -9 8
-15 0 -20 -6 -3 -7 -11 -4 -17 5 -7 2 -9 -8 -6 -11 5 -14 0 -10 -18 5 -25 -7
-31 -25 -13 -7 7 -9 1 -7 -22 2 -18 10 -36 17 -41 9 -6 8 -8 -3 -8 -13 0 -13
-2 -1 -9 14 -9 80 10 107 30 5 5 19 6 30 4 13 -4 27 6 47 32 31 41 34 67 11
111 -16 33 -28 38 -54 23z"/>
<path d="M3766 2042 c-16 -2 -35 -10 -43 -18 -8 -8 -25 -14 -39 -14 -19 0 -24
-5 -24 -25 0 -19 4 -23 17 -18 13 5 15 2 10 -11 -4 -10 -3 -15 3 -11 6 3 10 2
10 -3 0 -5 16 -17 35 -28 19 -10 35 -22 35 -27 0 -4 4 -5 10 -2 5 3 18 1 27
-4 14 -8 15 -11 3 -11 -12 0 -11 -3 3 -11 10 -6 24 -8 32 -5 8 3 25 -4 40 -16
14 -11 32 -17 41 -14 8 3 24 -4 35 -15 11 -11 30 -19 42 -19 12 1 31 2 42 1
17 -1 18 -3 5 -11 -10 -7 -11 -10 -2 -10 7 0 15 6 18 13 6 16 79 10 94 -8 6
-8 18 -11 26 -8 11 4 12 9 3 19 -9 11 -8 14 5 14 9 0 16 -7 16 -16 0 -13 3
-14 14 -5 10 8 16 9 21 1 8 -13 45 -13 45 0 0 12 22 9 33 -5 8 -12 29 14 21
27 -3 4 -1 8 5 8 5 0 11 -6 14 -12 3 -10 7 -10 20 1 9 7 14 17 11 22 -5 9 15
13 49 9 13 -1 18 4 16 17 -1 10 3 31 9 46 12 29 -1 67 -22 67 -6 0 -2 6 8 13
16 12 16 13 -1 14 -50 3 -73 9 -77 20 -3 7 -11 13 -18 13 -9 0 -8 -3 2 -10 9
-6 10 -10 3 -10 -6 0 -18 9 -26 21 -8 11 -17 16 -20 12 -6 -9 -31 -9 -142 2
-33 3 -103 5 -155 4 -120 -3 -168 -2 -200 3 -14 2 -38 2 -54 0z"/>
<path d="M4470 1946 c0 -2 7 -9 15 -16 9 -7 15 -8 15 -2 0 5 -7 12 -15 16 -8
3 -15 4 -15 2z"/>
<path d="M4175 1600 c3 -5 14 -10 23 -10 15 0 15 2 2 10 -20 13 -33 13 -25 0z"/>
<path d="M3562 1547 c7 -8 19 -14 26 -14 11 0 10 4 -4 14 -10 7 -22 13 -26 13
-5 0 -3 -6 4 -13z"/>
<path d="M4725 280 c3 -5 11 -10 16 -10 6 0 7 5 4 10 -3 6 -11 10 -16 10 -6 0
-7 -4 -4 -10z"/>
<path d="M5030 108 c0 -17 34 -46 74 -64 17 -7 27 -13 23 -14 -4 0 -2 -6 5
-14 9 -10 15 -11 20 -2 6 8 8 8 8 -1 0 -7 7 -13 16 -13 14 0 14 3 4 15 -7 8
-9 15 -4 15 5 1 -7 8 -26 16 -19 8 -45 24 -57 36 -13 12 -29 18 -38 14 -9 -3
-13 -2 -10 3 3 5 1 12 -5 16 -5 3 -10 0 -10 -7z"/>
<path d="M4885 70 c3 -5 8 -10 11 -10 2 0 4 5 4 10 0 6 -5 10 -11 10 -5 0 -7
-4 -4 -10z"/>
<path d="M4965 69 c4 -6 13 -8 19 -6 7 3 19 1 26 -3 8 -5 18 -6 23 -3 14 8
-15 23 -46 23 -17 0 -26 -4 -22 -11z"/>
<path d="M2685 62 c-10 -10 51 -34 85 -34 28 0 31 -1 15 -8 -21 -9 -21 -9 8
-15 12 -2 17 3 17 20 0 19 -7 24 -37 29 -21 3 -48 7 -60 9 -12 2 -25 2 -28 -1z"/>
<path d="M4930 60 c0 -5 5 -10 10 -10 6 0 10 5 10 10 0 6 -4 10 -10 10 -5 0
-10 -4 -10 -10z"/>
<path d="M5270 30 c-9 -6 -10 -10 -3 -10 6 0 15 5 18 10 8 12 4 12 -15 0z"/>
<path d="M2826 15 c8 -19 14 -19 14 0 0 8 -4 15 -10 15 -5 0 -7 -7 -4 -15z"/>
</g>
</svg>
