<svg width="156" height="156" viewBox="0 0 156 156" fill="none" xmlns="http://www.w3.org/2000/svg">
<path d="M38.0379 44.4295C37.2958 44.0293 36.4625 43.8285 35.6196 43.8469C34.7767 43.8652 33.953 44.1019 33.229 44.534C32.505 44.966 31.9055 45.5785 31.4892 46.3117C31.0729 47.0448 30.8539 47.8734 30.8538 48.7165V110.424C30.8538 111.716 31.3671 112.955 32.2807 113.869C33.1943 114.783 34.4334 115.296 35.7254 115.296C37.0175 115.296 38.2566 114.783 39.1702 113.869C40.0838 112.955 40.5971 111.716 40.5971 110.424V56.8749L75.634 75.738C77.076 76.5174 78.8168 76.5174 80.2588 75.738L115.296 56.8749V110.424C115.296 111.716 115.809 112.955 116.723 113.869C117.636 114.783 118.875 115.296 120.167 115.296C121.459 115.296 122.699 114.783 123.612 113.869C124.526 112.955 125.039 111.716 125.039 110.424V48.7165C125.039 47.8734 124.82 47.0448 124.404 46.3117C123.987 45.5785 123.388 44.966 122.664 44.534C121.94 44.1019 121.116 43.8652 120.273 43.8469C119.43 43.8285 118.597 44.0293 117.855 44.4295L77.9464 65.9167L38.0379 44.4295Z" fill="black"/>
<path fill-rule="evenodd" clip-rule="evenodd" d="M112.438 24.1764C89.4893 22.1248 66.4036 22.1248 43.4551 24.1764L33.5949 25.0533C28.4588 25.5119 23.6272 27.6884 19.8805 31.2313C16.1338 34.7741 13.6906 39.4765 12.9456 44.5789C9.71035 66.7063 9.71035 89.1866 12.9456 111.314C13.6922 116.416 16.1369 121.118 19.8848 124.66C23.6328 128.201 28.4651 130.376 33.6014 130.833L43.4486 131.716C66.4038 133.769 89.489 133.769 112.444 131.716L122.298 130.833C127.433 130.375 132.264 128.199 136.011 124.658C139.757 121.116 142.201 116.415 142.947 111.314C146.182 89.1866 146.182 66.7063 142.947 44.5789C142.202 39.4755 139.758 34.7723 136.01 31.2294C132.262 27.6864 127.429 25.5105 122.291 25.0533L112.438 24.1764ZM44.3255 33.8807C66.6992 31.8803 89.2067 31.8803 111.58 33.8807L121.434 34.7641C124.388 35.0265 127.167 36.277 129.323 38.3136C131.479 40.3502 132.885 43.0541 133.314 45.9884C136.413 67.1811 136.413 88.7118 133.314 109.904C132.885 112.839 131.479 115.543 129.323 117.579C127.167 119.616 124.388 120.866 121.434 121.129L111.58 122.012C89.2097 124.013 66.6961 124.013 44.3255 122.012L34.4718 121.129C31.5178 120.866 28.7385 119.616 26.5829 117.579C24.4272 115.543 23.021 112.839 22.5915 109.904C19.4929 88.7118 19.4929 67.1811 22.5915 45.9884C23.021 43.0541 24.4272 40.3502 26.5829 38.3136C28.7385 36.277 31.5178 35.0265 34.4718 34.7641L44.3255 33.8807Z" fill="black"/>
</svg>
