<svg width="47" height="47" viewBox="0 0 47 47" fill="none" xmlns="http://www.w3.org/2000/svg">
<path d="M46.5117 36.1459C44.8373 36.5719 43.8018 36.1643 42.8728 34.769C40.7872 31.6442 38.4849 28.6627 36.2635 25.626C35.977 25.2331 35.6796 24.8476 35.3088 24.3592C32.6797 27.9062 30.0543 31.2844 27.5905 34.7984C26.7092 36.0541 25.7839 36.6012 24.1389 36.1569L34.0236 22.8905L24.8219 10.9091C26.4045 10.6007 27.4987 10.7586 28.4681 12.1759C30.6088 15.3044 32.9698 18.2823 35.3234 21.4327C37.6918 18.2933 40.0234 15.3117 42.2266 12.2126C43.1115 10.9569 44.0625 10.4795 45.6524 10.9422C44.4481 12.5394 43.2694 14.111 42.0834 15.6716C40.4824 17.7755 38.9109 19.9052 37.2512 21.9651C36.66 22.6995 36.7555 23.1769 37.2842 23.8709C40.3539 27.9062 43.3869 31.982 46.5117 36.1459ZM0.488372 22.6702C0.752747 21.3446 0.928997 19.9934 1.29618 18.6935C3.49931 10.8247 12.5321 7.55304 18.7376 12.4293C22.3727 15.2897 23.276 19.3214 23.0961 23.8672H2.60704C2.29861 32.0224 8.16994 36.9464 15.6532 34.4348C18.2786 33.5536 19.8245 31.4973 20.5992 28.927C20.9921 27.6382 21.642 27.4362 22.8538 27.8034C22.2332 31.02 20.8269 33.7078 17.8894 35.3895C13.4831 37.9084 7.19322 37.0933 3.88486 33.594C1.93142 31.5377 1.10157 28.9784 0.734387 26.2135C0.679309 25.7729 0.565481 25.3396 0.477356 24.9026C0.4847 24.1585 0.488372 23.4143 0.488372 22.6702ZM2.64376 22.123H21.161C21.0399 16.226 17.368 12.0364 12.3485 11.9997C6.84072 11.9556 2.88243 16.0461 2.64376 22.123Z" fill="#009A9C"/>
</svg>
