<svg width="62" height="62" viewBox="0 0 62 62" fill="none" xmlns="http://www.w3.org/2000/svg">
<path fill-rule="evenodd" clip-rule="evenodd" d="M42.6434 20.7371C43.4208 22.986 43.9808 25.282 44.1648 27.6617C44.3935 30.614 44.2888 33.5454 43.6664 36.4492C43.6495 36.5291 43.6136 36.6042 43.587 36.6817C43.3918 36.6822 43.1927 36.658 43.0019 36.6875C41.3894 36.9409 39.7783 37.2034 38.1673 37.4645C36.502 37.7343 34.8343 37.9934 33.172 38.2816C32.583 38.3833 31.854 38.2617 31.6161 39.0765C31.6094 39.0987 31.5415 39.1026 31.5023 39.1152L31.5827 34.2468L31.5009 22.4997L32.2768 22.3665C33.5459 22.1587 34.815 21.948 36.085 21.746C37.6006 21.5053 39.1177 21.2713 40.6342 21.0364C41.3032 20.9323 41.973 20.8368 42.6434 20.7371Z" fill="#439934"/>
<path fill-rule="evenodd" clip-rule="evenodd" d="M29.9 53.3074C29.0814 52.6036 28.2342 51.9308 27.4495 51.1907C23.2272 47.2082 20.1389 42.5209 18.6179 36.8697C18.1989 35.3143 17.9195 33.7338 17.8299 32.1267C17.7669 31.0019 17.6758 29.867 17.7553 28.7481C17.9669 25.7721 18.3971 22.8247 19.2699 19.9582L19.3179 19.8913C19.4026 20.0042 19.5247 20.104 19.5678 20.2314C20.4198 22.7404 21.2655 25.2514 22.1069 27.7639C24.7506 35.6592 27.3909 43.5565 30.039 51.4498C30.0908 51.6039 30.225 51.7303 30.3214 51.8693L29.9 53.3074Z" fill="#45A538"/>
<path fill-rule="evenodd" clip-rule="evenodd" d="M42.6434 20.7371C41.973 20.8368 41.3026 20.9323 40.6337 21.0354C39.1171 21.2704 37.6001 21.5043 36.0845 21.745C34.8144 21.947 33.5454 22.1577 32.2763 22.3655L31.5003 22.4987L31.4945 21.9926C31.4689 21.5765 31.4248 21.1609 31.4199 20.7448C31.3865 18.0914 31.3657 15.438 31.3328 12.7846C31.3124 11.1237 31.2819 9.46323 31.248 7.80279C31.2272 6.77107 31.2049 5.73887 31.1584 4.7086C31.1332 4.15496 31.0441 3.60423 31.0077 3.05059C30.9874 2.73235 31.0155 2.4117 31.0218 2.09201C31.4175 2.85878 31.8045 3.63135 32.2114 4.39231C32.8542 5.59549 33.8781 6.4819 34.7999 7.4492C38.4439 11.2719 41.0309 15.7165 42.6434 20.7371Z" fill="#46A037"/>
<path fill-rule="evenodd" clip-rule="evenodd" d="M31.5018 39.1147C31.5411 39.1021 31.6094 39.0982 31.6157 39.076C31.8535 38.2612 32.5825 38.3828 33.1715 38.2811C34.8338 37.9934 36.5015 37.7338 38.1668 37.464C39.7779 37.2029 41.3889 36.9404 43.0014 36.687C43.1922 36.657 43.3913 36.6817 43.5865 36.6812C43.2852 37.7565 43.0479 38.8551 42.6657 39.9009C42.2317 41.0871 41.7066 42.2447 41.1491 43.3796C40.3145 45.0724 39.2815 46.6598 38.0719 48.1086C37.1424 49.2265 36.1063 50.2597 35.0678 51.2803C34.4938 51.8446 33.8171 52.3042 33.1874 52.8114L33.0242 52.7L32.4362 52.1972L31.8278 50.8637C31.4123 49.3082 31.1855 47.7082 31.1526 46.0984L31.1637 45.8267L31.2466 44.6516C31.2742 44.2505 31.311 43.85 31.3279 43.4479C31.3904 42.0035 31.4447 40.5591 31.5018 39.1147Z" fill="#409433"/>
<path fill-rule="evenodd" clip-rule="evenodd" d="M31.5018 39.1147C31.4446 40.5591 31.3904 42.0036 31.3289 43.4484C31.3119 43.8505 31.2751 44.2511 31.2475 44.6521L30.877 44.7921C30.054 42.3693 29.2306 39.9721 28.4251 37.5686C27.093 33.5924 25.777 29.6098 24.4469 25.6326C23.3726 22.4224 22.2908 19.2147 21.2016 16.0096C21.1507 15.8594 21.0044 15.7422 20.9027 15.6095L23.2742 11.2491C23.3556 11.3906 23.4631 11.5228 23.5145 11.6749C24.6128 14.9212 25.7056 18.1695 26.7927 21.4196C28.2051 25.6481 29.6089 29.8801 31.0203 34.1092C31.0765 34.2783 31.1695 34.4342 31.2582 34.6236L31.5827 34.2458L31.5018 39.1147Z" fill="#4FAA41"/>
<path fill-rule="evenodd" clip-rule="evenodd" d="M20.9032 15.61C21.0049 15.7427 21.1507 15.8599 21.2021 16.01C22.2913 19.2152 23.3731 22.4229 24.4474 25.6331C25.7775 29.6103 27.0935 33.5929 28.4255 37.5691C29.2306 39.9721 30.054 42.3697 30.8775 44.7926L31.248 44.6526L31.1652 45.8277L31.0901 46.0985C30.9612 47.385 30.8528 48.6744 30.6958 49.958C30.6169 50.6012 30.4493 51.2328 30.3219 51.8698C30.226 51.7308 30.0913 51.6043 30.0395 51.4503C27.3914 43.5565 24.7511 35.6597 22.1074 27.7644C21.2663 25.2518 20.4199 22.7409 19.5683 20.2319C19.5252 20.1045 19.4036 20.0047 19.3183 19.8918L20.9032 15.61Z" fill="#4AA73C"/>
<path fill-rule="evenodd" clip-rule="evenodd" d="M31.5822 34.2463L31.2577 34.6241C31.1691 34.4347 31.0761 34.2782 31.0199 34.1097C29.6089 29.8806 28.2047 25.6486 26.7922 21.42C25.7051 18.1699 24.6123 14.9217 23.514 11.6754C23.4631 11.5233 23.3556 11.3906 23.2737 11.2496L26.2066 7.39156C26.2991 7.51507 26.4309 7.62502 26.4789 7.76404C27.2931 10.1476 28.1001 12.5342 28.9022 14.9221C29.6515 17.1522 30.3897 19.3856 31.1477 21.6128C31.1986 21.762 31.3754 21.8676 31.4936 21.9935L31.4994 22.4997C31.5275 26.4144 31.5551 30.3306 31.5822 34.2463Z" fill="#57AE47"/>
<path fill-rule="evenodd" clip-rule="evenodd" d="M31.4945 21.9926C31.3763 21.8666 31.1995 21.761 31.1487 21.6118C30.3906 19.3847 29.6525 17.1512 28.9031 14.9212C28.101 12.5332 27.294 10.1472 26.4798 7.76308C26.4318 7.62406 26.3001 7.51411 26.2076 7.39059C27.1613 6.45672 28.0855 5.48942 29.0775 4.59866C29.9595 3.80719 30.6687 2.95856 30.7011 1.70791C30.7026 1.65608 30.7297 1.60425 30.7714 1.45894L31.0228 2.09153C31.0165 2.4117 30.9879 2.73188 31.0087 3.05011C31.045 3.60375 31.1342 4.15449 31.1593 4.70813C31.2058 5.73839 31.2281 6.77059 31.249 7.80231C31.2824 9.46275 31.3129 11.1232 31.3337 12.7841C31.3662 15.4375 31.3875 18.0909 31.4209 20.7443C31.4248 21.1614 31.4684 21.5765 31.4945 21.9926Z" fill="#60B24F"/>
<path fill-rule="evenodd" clip-rule="evenodd" d="M30.3209 51.8693C30.4483 51.2324 30.6159 50.6002 30.6948 49.9575C30.8523 48.6744 30.9603 47.3845 31.0891 46.098L31.1211 46.0931L31.1531 46.0985C31.186 47.7082 31.4127 49.3082 31.8283 50.8637C31.743 50.9761 31.6224 51.0764 31.5774 51.2033C31.2252 52.1963 30.8934 53.197 30.5394 54.1899C30.4909 54.3256 30.3563 54.4312 30.2613 54.5503L29.8995 53.3074L30.3209 51.8693Z" fill="#A9AA88"/>
<path fill-rule="evenodd" clip-rule="evenodd" d="M30.2618 54.5508C30.3567 54.4316 30.4919 54.3261 30.5398 54.1904C30.8939 53.1975 31.2262 52.1972 31.5779 51.2038C31.6229 51.0769 31.743 50.9766 31.8288 50.8642L32.4367 52.1982C32.3165 52.3687 32.1509 52.5222 32.084 52.7121L30.9196 56.1313C30.8716 56.2684 30.7079 56.3653 30.5985 56.481L30.2618 54.5508Z" fill="#B6B598"/>
<path fill-rule="evenodd" clip-rule="evenodd" d="M30.5984 56.4805C30.7084 56.3653 30.8716 56.2679 30.9196 56.1308L32.084 52.7116C32.1504 52.5222 32.3165 52.3682 32.4367 52.1977L33.0252 52.7C32.7408 52.9809 32.5829 53.3055 32.6779 53.7157L32.4991 54.3009C32.4178 54.4011 32.3001 54.4883 32.2599 54.6031C31.8535 55.7671 31.4655 56.9373 31.0562 58.1013C31.0044 58.249 30.8605 58.3648 30.7588 58.4946C30.706 57.8227 30.6522 57.1524 30.5984 56.4805Z" fill="#C2C1A7"/>
<path fill-rule="evenodd" clip-rule="evenodd" d="M30.7593 58.4946C30.8605 58.3643 31.0044 58.2485 31.0567 58.1013C31.466 56.9378 31.854 55.7676 32.2604 54.6031C32.3006 54.4888 32.4178 54.4011 32.4996 54.3009L32.2531 56.9867C32.1872 57.0628 32.0918 57.1291 32.0603 57.2178C31.7818 57.9996 31.5193 58.7872 31.2398 59.5689C31.1821 59.7302 31.0717 59.8726 30.9855 60.0233C30.909 59.923 30.7719 59.8261 30.7656 59.7215C30.7409 59.3142 30.7578 58.9039 30.7593 58.4946Z" fill="#CECDB7"/>
<path fill-rule="evenodd" clip-rule="evenodd" d="M30.985 60.0233C31.0712 59.8721 31.1816 59.7297 31.2393 59.5689C31.5193 58.7876 31.7813 58 32.0598 57.2178C32.0913 57.1291 32.1872 57.0633 32.2526 56.9867L32.2584 58.7498L31.6684 60.263L30.985 60.0233Z" fill="#DBDAC7"/>
<path fill-rule="evenodd" clip-rule="evenodd" d="M31.6684 60.2635L32.2584 58.7503L32.38 60.5406L31.6684 60.2635Z" fill="#EBE9DC"/>
<path fill-rule="evenodd" clip-rule="evenodd" d="M32.6779 53.7162C32.5829 53.306 32.7403 52.981 33.0252 52.7005L33.1884 52.8119L32.6779 53.7162Z" fill="#CECDB7"/>
<path fill-rule="evenodd" clip-rule="evenodd" d="M31.1531 46.0989L31.1211 46.0936L31.0891 46.0985L31.1642 45.8277L31.1531 46.0989Z" fill="#4FAA41"/>
</svg>
