<svg width="73" height="73" viewBox="0 0 73 73" fill="none" xmlns="http://www.w3.org/2000/svg">
<path d="M51.7083 36.5H9.125" stroke="#1E1E1E" stroke-linecap="round" stroke-linejoin="round"/>
<path d="M65.8308 35.8491L55.3948 29.5863C55.0256 29.3644 54.604 29.2446 54.1733 29.239C53.7425 29.2334 53.318 29.3422 52.9431 29.5544C52.5682 29.7666 52.2563 30.0746 52.0394 30.4468C51.8224 30.819 51.7082 31.2421 51.7083 31.6729V41.3271C51.7082 41.7579 51.8224 42.181 52.0394 42.5532C52.2563 42.9254 52.5682 43.2333 52.9431 43.4455C53.318 43.6577 53.7425 43.7666 54.1733 43.761C54.604 43.7554 55.0256 43.6355 55.3948 43.4137L65.8278 37.1509C65.9398 37.0832 66.0326 36.9877 66.0969 36.8737C66.1612 36.7596 66.1951 36.6309 66.1951 36.5C66.1951 36.369 66.1612 36.2403 66.0969 36.1263C66.0326 36.0122 65.9429 35.9168 65.8308 35.8491Z" fill="#1E1E1E"/>
</svg>
