<svg width="73" height="73" viewBox="0 0 73 73" fill="none" xmlns="http://www.w3.org/2000/svg">
<path d="M21.2917 36.5H63.875" stroke="#1E1E1E" stroke-linecap="round" stroke-linejoin="round"/>
<path d="M7.16917 35.8491L17.6051 29.5863C17.9744 29.3644 18.396 29.2446 18.8267 29.239C19.2575 29.2334 19.682 29.3422 20.0569 29.5544C20.4318 29.7666 20.7437 30.0746 20.9606 30.4468C21.1775 30.819 21.2918 31.2421 21.2916 31.6729V41.3271C21.2918 41.7579 21.1775 42.181 20.9606 42.5532C20.7437 42.9254 20.4318 43.2333 20.0569 43.4455C19.682 43.6577 19.2575 43.7666 18.8267 43.761C18.396 43.7554 17.9744 43.6355 17.6051 43.4137L7.17221 37.1509C7.06012 37.0832 6.96742 36.9877 6.90307 36.8737C6.83872 36.7596 6.80491 36.6309 6.80491 36.5C6.80491 36.369 6.83872 36.2403 6.90307 36.1263C6.96742 36.0122 7.05708 35.9168 7.16917 35.8491Z" fill="#1E1E1E"/>
</svg>
