<svg width="53" height="53" viewBox="0 0 53 53" fill="none" xmlns="http://www.w3.org/2000/svg">
<path d="M31.9059 35.8633C30.7234 37.5448 29.4348 39.1491 28.048 40.6664C31.7425 44.2506 35.1765 45.9289 37.0823 44.8269C38.9881 43.7272 39.2509 39.9134 37.9943 34.9248C36.1106 35.3443 34.0657 35.6646 31.9059 35.8633ZM29.013 36.0532C27.3391 36.1226 25.663 36.1226 23.9891 36.0532C24.8194 37.1397 25.663 38.1467 26.4999 39.0632C27.3391 38.1467 28.1805 37.1419 29.013 36.0532ZM40.143 18.6184C46.0282 20.3056 49.8729 23.1102 49.8729 26.4956C49.8729 29.8809 46.0304 32.6855 40.1452 34.3727C41.6248 40.3131 41.1169 45.0433 38.1864 46.7349C35.256 48.4287 30.9056 46.5031 26.4999 42.2498C22.0965 46.5008 17.7461 48.4287 14.8156 46.7349C11.883 45.0433 11.3773 40.3131 12.8569 34.3727C6.97165 32.6855 3.12915 29.8809 3.12915 26.4956C3.12915 23.1102 6.97165 20.3056 12.8569 18.6184C11.3773 12.678 11.8852 7.94776 14.8156 6.25397C17.7461 4.56239 22.0965 6.48806 26.4999 10.7413C30.9056 6.48806 35.256 4.56239 38.1864 6.25397C41.1169 7.94776 41.6248 12.678 40.1452 18.6184M37.9965 18.0708C39.2553 13.0799 38.9903 9.26835 37.0845 8.16639C35.1787 7.06664 31.7447 8.74497 28.0524 12.3291C29.4383 13.8467 30.7261 15.451 31.9082 17.1322C34.0679 17.331 36.1128 17.649 37.9965 18.0708ZM15.0078 34.9203C13.7512 39.9112 14.014 43.7228 15.922 44.8225C17.8278 45.9223 21.2618 44.2461 24.9541 40.662C23.5679 39.1439 22.28 37.5389 21.0984 35.8567C19.051 35.6736 17.0174 35.3602 15.01 34.9181M23.9935 16.9379C25.6674 16.8686 27.3435 16.8686 29.0174 16.9379C28.2219 15.901 27.382 14.8989 26.4999 13.9346C25.6608 14.8532 24.8216 15.8602 23.9891 16.9467M21.0962 17.1388C22.2779 15.4574 23.5657 13.8531 24.9519 12.3357C21.2596 8.74939 17.8256 7.07106 15.922 8.17081C14.0162 9.27276 13.7512 13.0866 15.01 18.0752C16.8937 17.6556 18.9386 17.3376 21.0984 17.1366M30.6825 33.7433C32.2552 31.4364 33.6533 29.0152 34.8651 26.5C33.6541 23.9847 32.2568 21.5635 30.6847 19.2566C27.901 19.0483 25.1055 19.0483 22.3218 19.2566C20.7483 21.5634 19.3494 23.9846 18.137 26.5C19.3489 29.0152 20.747 31.4364 22.3196 33.7433C25.1033 33.9514 27.8988 33.9514 30.6825 33.7433ZM33.5202 33.4518C34.8784 33.2751 36.1702 33.0499 37.3848 32.7827C36.9877 31.5366 36.5367 30.3084 36.0333 29.1014C35.2566 30.5855 34.4189 32.0369 33.5224 33.4518M19.4841 19.5459C18.1259 19.7226 16.8341 19.9501 15.6195 20.2173C15.9949 21.4009 16.4476 22.6332 16.9732 23.8986C17.7498 22.4144 18.5875 20.9631 19.4841 19.5481M15.6195 32.7849C16.8341 33.0521 18.1259 33.2773 19.4841 33.454C18.5875 32.0391 17.7499 30.5877 16.9732 29.1036C16.469 30.3106 16.0174 31.5388 15.6195 32.7849ZM13.4597 32.2438C14.0383 30.4021 14.7847 28.472 15.6901 26.5022C14.8253 24.6377 14.0803 22.7199 13.4597 20.7605C8.51086 22.165 5.33969 24.3027 5.33969 26.5022C5.33969 28.7017 8.51086 30.8371 13.4597 32.2438ZM37.387 20.2173C36.1091 19.9377 34.8197 19.7137 33.5224 19.5459C34.419 20.9609 35.2566 22.4122 36.0333 23.8963C36.5589 22.6332 37.0094 21.4009 37.387 20.2173ZM39.5446 20.7583C38.9704 22.6001 38.2196 24.5301 37.3141 26.5C38.2196 28.4698 38.9704 30.3999 39.5446 32.2416C44.4956 30.8349 47.6668 28.6995 47.6668 26.5C47.6668 24.3005 44.4956 22.165 39.5446 20.7583ZM26.4999 30.6494C25.9436 30.6676 25.3894 30.5737 24.8701 30.3733C24.3508 30.173 23.8771 29.8702 23.4771 29.4831C23.0772 29.096 22.7592 28.6324 22.542 28.12C22.3248 27.6075 22.2129 27.0566 22.2129 26.5C22.2129 25.9434 22.3248 25.3925 22.542 24.88C22.7592 24.3675 23.0772 23.9039 23.4771 23.5168C23.8771 23.1297 24.3508 22.827 24.8701 22.6266C25.3894 22.4263 25.9436 22.3324 26.4999 22.3505C27.577 22.3857 28.5982 22.8382 29.3477 23.6126C30.0972 24.3869 30.5162 25.4223 30.5162 26.5C30.5162 27.5776 30.0972 28.613 29.3477 29.3874C28.5982 30.1617 27.577 30.6143 26.4999 30.6494Z" fill="white"/>
</svg>
