<svg width="53" height="53" viewBox="0 0 53 53" fill="none" xmlns="http://www.w3.org/2000/svg">
<path d="M26.5 49.6875C25.8744 49.6877 25.2597 49.5232 24.7179 49.2105L19.0469 45.8533C18.2005 45.3796 18.6129 45.2123 18.8928 45.1146C19.793 44.8365 20.6548 44.447 21.4584 43.9552C21.5256 43.9241 21.5997 43.9107 21.6736 43.9162C21.7475 43.9217 21.8188 43.9459 21.8807 43.9867L26.2383 46.5754C26.3195 46.6183 26.4099 46.6408 26.5017 46.6408C26.5935 46.6408 26.6839 46.6183 26.765 46.5754L43.7581 36.7671C43.8376 36.7194 43.9034 36.652 43.949 36.5712C43.9946 36.4905 44.0184 36.3993 44.0182 36.3067V16.6867C44.0182 16.5925 43.994 16.5 43.9479 16.4179C43.9018 16.3358 43.8353 16.2669 43.7548 16.218L26.7617 6.41797C26.6816 6.37284 26.5911 6.34913 26.4992 6.34913C26.4072 6.34913 26.3168 6.37284 26.2367 6.41797L9.25347 16.2213C9.17246 16.2692 9.10519 16.3372 9.05819 16.4188C9.01118 16.5003 8.98603 16.5926 8.98516 16.6867V36.2984C8.98539 36.3909 9.0102 36.4816 9.05706 36.5614C9.10392 36.6411 9.17113 36.707 9.25181 36.7522L13.9125 39.4419C16.4383 40.704 17.9852 39.2167 17.9852 37.7227V18.3595C17.9852 18.2277 18.0376 18.1014 18.1308 18.0082C18.2239 17.915 18.3503 17.8627 18.4821 17.8627H20.6352C20.767 17.8627 20.8934 17.915 20.9866 18.0082C21.0797 18.1014 21.1321 18.2277 21.1321 18.3595V37.7244C21.1321 41.0949 19.297 43.0244 16.1004 43.0244C14.7214 43.0484 13.364 42.6796 12.1867 41.9611L7.71978 39.3989C7.17751 39.0831 6.72755 38.6306 6.41484 38.0865C6.10212 37.5425 5.93758 36.9259 5.93766 36.2984V16.6867C5.93604 16.0582 6.09988 15.4404 6.41271 14.8952C6.72553 14.3501 7.17632 13.8969 7.71978 13.5812L24.7146 3.76962C25.262 3.47012 25.876 3.31314 26.5 3.31314C27.124 3.31314 27.738 3.47012 28.2854 3.76962L45.2786 13.5812C45.8208 13.8964 46.2708 14.3483 46.5838 14.8918C46.8968 15.4352 47.0618 16.0513 47.0623 16.6784V36.2984C47.0614 36.9259 46.8963 37.5422 46.5833 38.0862C46.2704 38.6301 45.8206 39.0827 45.2786 39.3989L28.2854 49.2105C27.7426 49.5237 27.1267 49.6882 26.5 49.6875Z" fill="#60B24F"/>
<path d="M23.2769 29.7347C23.2769 29.6029 23.3293 29.4765 23.4225 29.3833C23.5157 29.2901 23.642 29.2378 23.7738 29.2378H25.9717C26.0891 29.2382 26.2026 29.2801 26.292 29.3562C26.3815 29.4323 26.4411 29.5377 26.4603 29.6535C26.7915 31.8911 27.7853 33.019 32.2787 33.019C35.8578 33.019 37.3832 32.2091 37.3832 30.3094C37.3832 29.2146 36.9509 28.4014 31.3876 27.8565C26.7368 27.396 23.8616 26.3659 23.8616 22.6492C23.8616 19.2208 26.7518 17.1753 31.5963 17.1753C37.0404 17.1753 39.7351 19.0651 40.0763 23.1196C40.0815 23.1873 40.0728 23.2553 40.0507 23.3195C40.0286 23.3837 39.9935 23.4427 39.9478 23.4928C39.902 23.543 39.8464 23.5832 39.7845 23.611C39.7225 23.6388 39.6556 23.6536 39.5877 23.6546H37.3749C37.2639 23.653 37.1566 23.6143 37.0702 23.5447C36.9837 23.475 36.9231 23.3785 36.8979 23.2703C36.3696 20.9168 35.0761 20.1649 31.5979 20.1649C27.6892 20.1649 27.2354 21.5263 27.2354 22.5465C27.2354 23.7821 27.772 24.1432 33.0488 24.8404C38.271 25.5311 40.752 26.5083 40.752 30.1785C40.752 33.8819 37.6648 36.0019 32.2803 36.0019C24.8355 36.0119 23.2769 32.5983 23.2769 29.7347Z" fill="#60B24F"/>
</svg>
