<svg width="250" height="250" viewBox="0 0 250 250" fill="none" xmlns="http://www.w3.org/2000/svg">
<mask id="path-1-inside-1_160_78" fill="white">
<path fill-rule="evenodd" clip-rule="evenodd" d="M95.5695 233.493C102.202 234.89 108.918 235.702 115.643 235.932L114.5 248.5L131.5 242.269C131.5 242.269 144 237 145.5 236.5C145.627 236.458 145.899 236.354 146.296 236.203C150.588 234.571 169.378 227.427 174.074 233.202C179.204 239.51 185.246 239.904 185.246 239.904L199.611 242.269L191.631 176.433L204 174.462L202.005 160.269L199.611 138.587L194.025 94.4327C194.025 94.4327 179.288 92.0653 174.5 88.5C169.712 84.9347 168.488 83 168.488 83C166.892 86.5309 159.709 107.048 159.709 107.048C159.709 107.048 150.532 87.7136 148.936 83C148.936 83 142.552 89.3077 138.163 92.0673C133.773 94.8269 123 96.8153 123 96.8153C123 102.404 117.206 147.625 115.185 163.229C81.6537 154.095 57 123.426 57 87C57 43.3695 92.3695 8 136 8C148.345 8 160.029 10.8318 170.438 15.8812C159.066 8.03289 152.502 6.4368 135.656 4.1039C115.833 1.35875 95.6364 3.75414 77.0085 11.0597C58.3806 18.3652 41.948 30.3352 29.2909 45.8184C16.6339 61.3016 8.17825 79.7771 4.73719 99.4682C1.29613 119.159 2.98541 139.404 9.64257 158.254C16.2997 177.104 27.7008 193.927 42.7494 207.104C57.798 220.28 75.9878 229.368 95.5695 233.493ZM230 246C238.284 246 245 239.284 245 231C245 222.716 238.284 216 230 216C221.716 216 215 222.716 215 231C215 239.284 221.716 246 230 246Z"/>
</mask>
<path fill-rule="evenodd" clip-rule="evenodd" d="M95.5695 233.493C102.202 234.89 108.918 235.702 115.643 235.932L114.5 248.5L131.5 242.269C131.5 242.269 144 237 145.5 236.5C145.627 236.458 145.899 236.354 146.296 236.203C150.588 234.571 169.378 227.427 174.074 233.202C179.204 239.51 185.246 239.904 185.246 239.904L199.611 242.269L191.631 176.433L204 174.462L202.005 160.269L199.611 138.587L194.025 94.4327C194.025 94.4327 179.288 92.0653 174.5 88.5C169.712 84.9347 168.488 83 168.488 83C166.892 86.5309 159.709 107.048 159.709 107.048C159.709 107.048 150.532 87.7136 148.936 83C148.936 83 142.552 89.3077 138.163 92.0673C133.773 94.8269 123 96.8153 123 96.8153C123 102.404 117.206 147.625 115.185 163.229C81.6537 154.095 57 123.426 57 87C57 43.3695 92.3695 8 136 8C148.345 8 160.029 10.8318 170.438 15.8812C159.066 8.03289 152.502 6.4368 135.656 4.1039C115.833 1.35875 95.6364 3.75414 77.0085 11.0597C58.3806 18.3652 41.948 30.3352 29.2909 45.8184C16.6339 61.3016 8.17825 79.7771 4.73719 99.4682C1.29613 119.159 2.98541 139.404 9.64257 158.254C16.2997 177.104 27.7008 193.927 42.7494 207.104C57.798 220.28 75.9878 229.368 95.5695 233.493ZM230 246C238.284 246 245 239.284 245 231C245 222.716 238.284 216 230 216C221.716 216 215 222.716 215 231C215 239.284 221.716 246 230 246Z" fill="#1976D2"/>
<path d="M115.643 235.932L125.602 236.837L126.559 226.299L115.985 225.938L115.643 235.932ZM95.5695 233.493L93.5083 243.278L93.5083 243.278L95.5695 233.493ZM114.5 248.5L104.541 247.595L103.111 263.325L117.941 257.889L114.5 248.5ZM131.5 242.269L134.941 251.658L135.165 251.577L135.384 251.484L131.5 242.269ZM145.5 236.5L142.338 227.013L142.338 227.013L145.5 236.5ZM146.296 236.203L142.742 226.856L142.742 226.856L146.296 236.203ZM174.074 233.202L166.316 239.511L166.316 239.511L174.074 233.202ZM185.246 239.904L186.871 230.037L186.387 229.957L185.897 229.925L185.246 239.904ZM199.611 242.269L197.986 252.136L211.143 254.303L209.538 241.066L199.611 242.269ZM191.631 176.433L190.057 166.557L180.544 168.073L181.703 177.636L191.631 176.433ZM204 174.462L205.574 184.337L215.269 182.792L213.903 173.069L204 174.462ZM202.005 160.269L192.065 161.367L192.082 161.514L192.102 161.661L202.005 160.269ZM199.611 138.587L209.55 137.489L209.542 137.41L209.532 137.331L199.611 138.587ZM194.025 94.4327L203.946 93.1775L203.005 85.7472L195.611 84.5593L194.025 94.4327ZM168.488 83L176.938 77.6531L167.018 61.9742L159.375 78.881L168.488 83ZM159.709 107.048L150.675 111.336L161.109 133.317L169.148 110.352L159.709 107.048ZM148.936 83L158.408 79.7928L153.28 64.6502L141.908 75.8864L148.936 83ZM123 96.8153L121.185 86.9813L113 88.492V96.8153H123ZM115.185 163.229L112.557 172.878L123.629 175.894L125.103 164.514L115.185 163.229ZM170.438 15.8812L166.073 24.8784L176.118 7.65095L170.438 15.8812ZM135.656 4.1039L137.027 -5.80157L137.027 -5.80157L135.656 4.1039ZM77.0085 11.0597L80.6596 20.3693L80.6596 20.3693L77.0085 11.0597ZM29.2909 45.8184L21.5487 39.4893L21.5487 39.4893L29.2909 45.8184ZM4.73719 99.4682L14.5879 101.19L14.5879 101.19L4.73719 99.4682ZM9.64257 158.254L19.0718 154.924L19.0718 154.924L9.64257 158.254ZM42.7494 207.104L36.1617 214.627L36.1617 214.627L42.7494 207.104ZM115.985 225.938C109.836 225.727 103.695 224.985 97.6306 223.707L93.5083 243.278C100.709 244.795 108 245.676 115.301 245.926L115.985 225.938ZM124.459 249.405L125.602 236.837L105.684 235.026L104.541 247.595L124.459 249.405ZM128.059 232.88L111.059 239.111L117.941 257.889L134.941 251.658L128.059 232.88ZM142.338 227.013C141.135 227.414 137.125 229.078 134.092 230.341C132.425 231.036 130.806 231.714 129.606 232.218C129.005 232.47 128.508 232.679 128.162 232.825C127.988 232.898 127.852 232.955 127.759 232.994C127.713 233.014 127.677 233.029 127.653 233.039C127.641 233.044 127.632 233.048 127.625 233.05C127.622 233.052 127.62 233.053 127.618 233.053C127.617 233.054 127.617 233.054 127.616 233.054C127.616 233.054 127.616 233.054 127.616 233.054C127.616 233.054 127.616 233.055 131.5 242.269C135.384 251.484 135.384 251.484 135.384 251.484C135.385 251.484 135.385 251.484 135.385 251.484C135.385 251.484 135.386 251.483 135.386 251.483C135.388 251.483 135.39 251.482 135.393 251.48C135.399 251.478 135.407 251.474 135.419 251.469C135.442 251.46 135.477 251.445 135.522 251.426C135.613 251.388 135.747 251.331 135.919 251.259C136.261 251.115 136.753 250.908 137.347 250.659C138.538 250.159 140.138 249.488 141.783 248.803C143.431 248.117 145.108 247.422 146.458 246.871C148 246.242 148.68 245.981 148.662 245.987L142.338 227.013ZM142.742 226.856C142.535 226.935 142.394 226.988 142.288 227.028C142.237 227.047 142.213 227.056 142.207 227.058C142.205 227.059 142.214 227.056 142.232 227.049C142.248 227.044 142.286 227.031 142.338 227.013L148.662 245.987C149.045 245.859 149.598 245.646 149.85 245.551L142.742 226.856ZM181.832 226.893C177.921 222.083 172.213 221.175 168.825 221.016C165.074 220.84 161.175 221.442 157.905 222.154C151.275 223.599 144.876 226.045 142.742 226.856L149.849 245.551C152.007 244.73 157.15 242.788 162.162 241.696C164.712 241.14 166.66 240.937 167.887 240.994C169.477 241.069 167.878 241.433 166.316 239.511L181.832 226.893ZM185.246 239.904C185.897 229.925 185.902 229.925 185.907 229.926C185.908 229.926 185.913 229.926 185.916 229.926C185.922 229.927 185.929 229.927 185.935 229.928C185.947 229.928 185.959 229.929 185.97 229.93C185.993 229.932 186.015 229.933 186.036 229.935C186.077 229.939 186.114 229.942 186.145 229.945C186.209 229.951 186.255 229.957 186.283 229.96C186.341 229.968 186.333 229.969 186.273 229.956C186.149 229.93 185.832 229.853 185.395 229.673C184.557 229.328 183.202 228.577 181.832 226.893L166.316 239.511C170.075 244.134 174.307 246.735 177.773 248.164C179.488 248.871 181.002 249.286 182.171 249.531C182.757 249.654 183.262 249.735 183.67 249.789C183.874 249.816 184.054 249.836 184.209 249.851C184.286 249.858 184.357 249.865 184.422 249.87C184.454 249.873 184.485 249.875 184.514 249.877C184.528 249.878 184.542 249.879 184.556 249.88C184.563 249.88 184.569 249.881 184.576 249.881C184.579 249.882 184.584 249.882 184.586 249.882C184.591 249.882 184.595 249.883 185.246 239.904ZM201.236 232.402L186.871 230.037L183.622 249.771L197.986 252.136L201.236 232.402ZM181.703 177.636L189.684 243.473L209.538 241.066L201.558 175.229L181.703 177.636ZM202.426 164.586L190.057 166.557L193.204 186.308L205.574 184.337L202.426 164.586ZM192.102 161.661L194.097 175.854L213.903 173.069L211.908 158.877L192.102 161.661ZM189.671 139.684L192.065 161.367L211.945 159.172L209.55 137.489L189.671 139.684ZM184.104 95.6879L189.69 139.842L209.532 137.331L203.946 93.1775L184.104 95.6879ZM168.528 96.5207C170.975 98.3432 173.965 99.5594 176.25 100.364C178.739 101.24 181.384 101.96 183.703 102.522C186.048 103.09 188.208 103.531 189.775 103.83C190.562 103.98 191.21 104.096 191.669 104.176C191.899 104.216 192.082 104.247 192.212 104.269C192.277 104.28 192.329 104.288 192.367 104.294C192.386 104.298 192.401 104.3 192.413 104.302C192.419 104.303 192.424 104.304 192.429 104.305C192.431 104.305 192.433 104.305 192.434 104.305C192.435 104.306 192.436 104.306 192.437 104.306C192.438 104.306 192.438 104.306 194.025 94.4327C195.611 84.5593 195.612 84.5594 195.612 84.5596C195.613 84.5596 195.613 84.5597 195.614 84.5598C195.614 84.5599 195.615 84.56 195.615 84.56C195.616 84.5601 195.616 84.5601 195.615 84.5599C195.612 84.5595 195.607 84.5586 195.598 84.5571C195.58 84.5542 195.548 84.549 195.504 84.5417C195.416 84.527 195.278 84.5036 195.095 84.4719C194.73 84.4083 194.189 84.3115 193.52 84.184C192.174 83.9274 190.35 83.554 188.412 83.0845C186.449 82.6089 184.512 82.069 182.891 81.4984C181.067 80.8562 180.419 80.4395 180.472 80.4793L168.528 96.5207ZM168.488 83C160.037 88.3469 160.04 88.3507 160.042 88.3546C160.043 88.3559 160.045 88.3598 160.047 88.3624C160.05 88.3676 160.054 88.3728 160.057 88.378C160.064 88.3885 160.07 88.399 160.077 88.4097C160.091 88.4309 160.105 88.4526 160.119 88.4746C160.148 88.5185 160.178 88.5639 160.21 88.6107C160.273 88.7043 160.341 88.8034 160.416 88.9082C160.566 89.1177 160.741 89.3495 160.944 89.6031C161.349 90.1102 161.869 90.7062 162.532 91.3879C163.857 92.7485 165.771 94.4678 168.528 96.5207L180.472 80.4793C178.441 78.9669 177.349 77.9362 176.864 77.4381C176.623 77.1905 176.538 77.08 176.564 77.1129C176.577 77.1295 176.619 77.1823 176.683 77.272C176.715 77.3169 176.753 77.371 176.796 77.4345C176.817 77.4663 176.84 77.5003 176.863 77.5368C176.875 77.555 176.887 77.5738 176.9 77.5932C176.906 77.6029 176.912 77.6127 176.919 77.6227C176.922 77.6277 176.925 77.6327 176.928 77.6378C176.93 77.6403 176.933 77.6442 176.933 77.6454C176.936 77.6493 176.938 77.6531 168.488 83ZM159.709 107.048C169.148 110.352 169.148 110.352 169.148 110.352C169.148 110.352 169.148 110.352 169.148 110.351C169.148 110.351 169.148 110.35 169.149 110.349C169.15 110.347 169.151 110.343 169.153 110.338C169.156 110.329 169.161 110.315 169.168 110.296C169.181 110.257 169.201 110.2 169.227 110.126C169.279 109.976 169.357 109.756 169.456 109.474C169.654 108.91 169.939 108.099 170.287 107.115C170.982 105.145 171.924 102.486 172.914 99.7198C174.996 93.9074 177.015 88.4138 177.6 87.119L159.375 78.881C158.365 81.1172 155.994 87.6475 154.086 92.9764C153.081 95.781 152.128 98.4714 151.427 100.459C151.076 101.454 150.787 102.273 150.586 102.845C150.486 103.131 150.407 103.355 150.354 103.508C150.327 103.584 150.306 103.643 150.292 103.683C150.285 103.703 150.28 103.718 150.277 103.728C150.275 103.733 150.273 103.737 150.272 103.74C150.272 103.741 150.272 103.742 150.271 103.743C150.271 103.743 150.271 103.744 150.271 103.744C150.271 103.744 150.271 103.744 159.709 107.048ZM139.464 86.2072C140.473 89.1855 143.45 95.7818 145.836 100.97C147.097 103.712 148.306 106.301 149.198 108.202C149.645 109.154 150.013 109.935 150.27 110.479C150.398 110.751 150.499 110.964 150.568 111.11C150.603 111.183 150.629 111.239 150.647 111.277C150.656 111.296 150.663 111.31 150.668 111.32C150.67 111.325 150.672 111.329 150.673 111.332C150.674 111.333 150.674 111.334 150.675 111.335C150.675 111.335 150.675 111.336 150.675 111.336C150.675 111.336 150.675 111.336 159.709 107.048C168.743 102.76 168.743 102.76 168.743 102.76C168.743 102.76 168.743 102.76 168.743 102.76C168.743 102.759 168.743 102.758 168.742 102.757C168.741 102.755 168.74 102.752 168.738 102.748C168.733 102.739 168.727 102.726 168.719 102.708C168.702 102.673 168.677 102.62 168.644 102.55C168.577 102.41 168.48 102.203 168.354 101.937C168.103 101.406 167.742 100.639 167.303 99.7046C166.425 97.8335 165.239 95.2942 164.007 92.6135C161.405 86.9558 158.995 81.5281 158.408 79.7928L139.464 86.2072ZM143.485 100.533C146.454 98.6668 149.685 95.9032 151.869 93.9462C153.032 92.9041 154.041 91.9597 154.761 91.2748C155.123 90.9311 155.415 90.6496 155.62 90.4501C155.723 90.3502 155.804 90.2706 155.862 90.2138C155.891 90.1854 155.915 90.1626 155.932 90.1458C155.94 90.1374 155.947 90.1305 155.953 90.1251C155.955 90.1224 155.958 90.1201 155.96 90.1182C155.961 90.1172 155.961 90.1164 155.962 90.1156C155.963 90.1152 155.963 90.1147 155.963 90.1145C155.964 90.114 155.964 90.1136 148.936 83C141.908 75.8864 141.908 75.886 141.908 75.8856C141.909 75.8855 141.909 75.8852 141.909 75.885C141.91 75.8846 141.91 75.8843 141.91 75.8841C141.91 75.8837 141.91 75.8837 141.91 75.8841C141.909 75.8848 141.907 75.887 141.903 75.8906C141.896 75.8978 141.883 75.9108 141.864 75.9292C141.826 75.9662 141.766 76.0248 141.686 76.1028C141.525 76.2589 141.284 76.4918 140.978 76.7826C140.364 77.3666 139.503 78.1717 138.522 79.0514C136.416 80.9381 134.261 82.7082 132.84 83.6016L143.485 100.533ZM123 96.8153C124.815 106.649 124.816 106.649 124.817 106.649C124.817 106.649 124.818 106.649 124.819 106.648C124.82 106.648 124.822 106.648 124.824 106.648C124.827 106.647 124.831 106.646 124.836 106.645C124.846 106.643 124.859 106.641 124.874 106.638C124.903 106.633 124.944 106.625 124.994 106.616C125.093 106.597 125.232 106.57 125.405 106.536C125.752 106.467 126.24 106.369 126.833 106.242C128.014 105.991 129.648 105.623 131.449 105.155C134.596 104.338 139.815 102.841 143.485 100.533L132.84 83.6016C132.84 83.6014 132.836 83.6037 132.829 83.6084C132.821 83.6131 132.809 83.6198 132.794 83.6285C132.763 83.6462 132.719 83.6703 132.661 83.7004C132.543 83.7616 132.384 83.8387 132.18 83.9296C131.766 84.1142 131.242 84.3215 130.613 84.5438C129.344 84.9917 127.879 85.4187 126.421 85.7973C124.98 86.1716 123.647 86.4728 122.671 86.6805C122.186 86.7836 121.797 86.862 121.538 86.9132C121.408 86.9388 121.311 86.9575 121.251 86.9689C121.221 86.9747 121.2 86.9786 121.189 86.9807C121.183 86.9817 121.18 86.9823 121.179 86.9824C121.179 86.9825 121.179 86.9824 121.18 86.9822C121.181 86.9821 121.181 86.982 121.182 86.9819C121.183 86.9818 121.183 86.9817 121.183 86.9816C121.184 86.9815 121.185 86.9813 123 96.8153ZM125.103 164.514C126.114 156.704 128.071 141.469 129.777 127.477C130.629 120.485 131.423 113.772 132.004 108.44C132.55 103.437 133 98.8941 133 96.8153H113C113 96.7923 113 96.8482 112.993 97.0126C112.986 97.1675 112.975 97.3757 112.957 97.6435C112.921 98.1816 112.865 98.8789 112.787 99.7361C112.633 101.449 112.406 103.665 112.122 106.272C111.554 111.478 110.773 118.094 109.924 125.057C108.228 138.973 106.278 154.15 105.268 161.945L125.103 164.514ZM47 87C47 128.052 74.7848 162.588 112.557 172.878L117.814 153.581C88.5226 145.601 67 118.801 67 87H47ZM136 -2C86.8467 -2 47 37.8467 47 87H67C67 48.8924 97.8924 18 136 18V-2ZM174.803 6.88404C163.063 1.18899 149.89 -2 136 -2V18C146.801 18 156.995 20.4746 166.073 24.8784L174.803 6.88404ZM134.284 14.0094C142.733 15.1794 147.786 16.0688 152.022 17.4389C156.01 18.7288 159.617 20.5633 164.758 24.1114L176.118 7.65095C169.887 3.3508 164.526 0.463122 158.177 -1.5904C152.076 -3.56362 145.424 -4.63873 137.027 -5.80157L134.284 14.0094ZM80.6596 20.3693C97.6917 13.6896 116.159 11.4993 134.284 14.0094L137.027 -5.80157C115.507 -8.78179 93.5811 -6.18135 73.3574 1.75004L80.6596 20.3693ZM37.0332 52.1475C48.6041 37.993 63.6276 27.049 80.6596 20.3693L73.3574 1.75004C53.1337 9.68146 35.2919 22.6774 21.5487 39.4893L37.0332 52.1475ZM14.5879 101.19C17.7333 83.1908 25.4624 66.3019 37.0332 52.1475L21.5487 39.4893C7.80539 56.3013 -1.37675 76.3635 -5.11353 97.7468L14.5879 101.19ZM19.0718 154.924C12.9866 137.693 11.4426 119.189 14.5879 101.19L-5.11353 97.7468C-8.85032 119.13 -7.0158 141.114 0.213306 161.584L19.0718 154.924ZM49.3371 199.58C35.5792 187.534 25.1571 172.155 19.0718 154.924L0.213306 161.584C7.44239 182.054 19.8225 200.32 36.1617 214.627L49.3371 199.58ZM97.6306 223.707C79.7259 219.936 63.095 211.627 49.3371 199.58L36.1617 214.627C52.5009 228.934 72.2497 238.8 93.5083 243.278L97.6306 223.707ZM235 231C235 233.761 232.761 236 230 236V256C243.807 256 255 244.807 255 231H235ZM230 226C232.761 226 235 228.239 235 231H255C255 217.193 243.807 206 230 206V226ZM225 231C225 228.239 227.239 226 230 226V206C216.193 206 205 217.193 205 231H225ZM230 236C227.239 236 225 233.761 225 231H205C205 244.807 216.193 256 230 256V236Z" fill="black" mask="url(#path-1-inside-1_160_78)"/>
<circle cx="157" cy="57" r="10" fill="white" stroke="black" stroke-width="10"/>
</svg>
