<svg width="250" height="250" viewBox="0 0 250 250" fill="none" xmlns="http://www.w3.org/2000/svg">
<path fill-rule="evenodd" clip-rule="evenodd" d="M124.552 215.5L78.981 140H170.124L124.552 215.5ZM202.114 87H46.9905L15 34H234.104L202.114 87ZM133.639 38L135.289 44.157L135.3 44.1539L139.876 61.2294L140 61.2627L138.296 67.6232L131.66 65.8452L132.83 61.4779L128.793 46.4104L117.87 49.3374V60.0761L128.622 78.6997L122.673 82.1345L111.057 62.015H111V61.9168V44.1539H111.024L111 44.0661L133.639 38Z" fill="#0047AB"/>
<path d="M71.74 118.64C70.7667 118.64 69.9333 118.487 69.24 118.18C68.5467 117.887 68.0133 117.48 67.64 116.96C67.2667 116.427 67.08 115.827 67.08 115.16C67.08 114.52 67.26 113.84 67.62 113.12C66.9533 112.72 66.62 112.133 66.62 111.36C66.62 110.6 66.94 109.993 67.58 109.54C68.2067 109.073 68.98 108.84 69.9 108.84C70.5933 108.84 71.3067 108.96 72.04 109.2C73.68 108.427 75.3533 108.04 77.06 108.04C77.98 108.04 78.6733 108.233 79.14 108.62C79.5267 108.94 79.72 109.353 79.72 109.86C79.72 110.22 79.6333 110.553 79.46 110.86C79.1933 111.353 78.7933 111.82 78.26 112.26C77.74 112.687 77.0867 113.087 76.3 113.46L76.28 113.48C76.2 113.507 76.1467 113.52 76.12 113.52C76.0933 113.52 76.08 113.507 76.08 113.48C76.08 113.427 76.1133 113.373 76.18 113.32C76.2467 113.187 76.28 113.06 76.28 112.94C76.28 112.553 76.04 112.093 75.56 111.56C75.3867 111.373 75.22 111.207 75.06 111.06C74.9 110.913 74.74 110.787 74.58 110.68C74.2467 110.453 73.9133 110.247 73.58 110.06C73.2467 109.873 72.9067 109.713 72.56 109.58C70.9067 110.3 69.6133 111.28 68.68 112.52C68.5867 112.613 68.5 112.713 68.42 112.82C68.3533 112.927 68.2867 113.033 68.22 113.14C68.78 113.367 69.3533 113.48 69.94 113.48C70.7 113.48 71.1467 113.34 71.28 113.06C71.28 113.033 71.2933 113.02 71.32 113.02C71.36 113.02 71.3867 113.033 71.4 113.06C71.4267 113.087 71.4267 113.113 71.4 113.14C71.32 113.3 71.12 113.427 70.8 113.52C70.4933 113.613 70.1333 113.66 69.72 113.66C69.1467 113.66 68.6 113.567 68.08 113.38C67.6667 114.073 67.46 114.733 67.46 115.36C67.46 116.213 67.86 116.893 68.66 117.4C69.46 117.893 70.5333 118.14 71.88 118.14C72.2133 118.14 72.56 118.12 72.92 118.08C73.9333 117.973 74.7467 117.853 75.36 117.72C76.52 117.413 77.42 116.96 78.06 116.36C78.1133 116.307 78.1533 116.28 78.18 116.28C78.2333 116.28 78.26 116.32 78.26 116.4C78.2467 116.44 78.2133 116.5 78.16 116.58C77.6133 117.047 76.7467 117.493 75.56 117.92C75.0667 118.093 74.6067 118.227 74.18 118.32C73.7533 118.427 73.3467 118.507 72.96 118.56C72.7467 118.587 72.5333 118.607 72.32 118.62C72.12 118.633 71.9267 118.64 71.74 118.64ZM76.5 113.12C76.7933 112.96 77.0467 112.813 77.26 112.68C77.4867 112.547 77.6667 112.433 77.8 112.34C78.36 111.913 78.76 111.447 79 110.94C79.1333 110.673 79.2 110.407 79.2 110.14C79.2 109.647 78.96 109.273 78.48 109.02C78.0267 108.78 77.4067 108.66 76.62 108.66C75.42 108.66 74.14 108.933 72.78 109.48C73.1133 109.613 73.4333 109.773 73.74 109.96C74.06 110.133 74.3733 110.333 74.68 110.56C75.1067 110.867 75.4933 111.213 75.84 111.6C76.2933 112.107 76.52 112.547 76.52 112.92C76.52 112.947 76.52 112.98 76.52 113.02C76.52 113.06 76.5133 113.093 76.5 113.12ZM67.74 112.88C67.82 112.733 67.9067 112.593 68 112.46C68.0933 112.313 68.1933 112.173 68.3 112.04C69.1667 110.96 70.32 110.053 71.76 109.32C71.16 109.16 70.5667 109.08 69.98 109.08C69.1267 109.08 68.3733 109.293 67.72 109.72C67.12 110.12 66.82 110.647 66.82 111.3C66.82 111.98 67.1267 112.507 67.74 112.88ZM78.1403 118.02C77.8336 118.02 77.6803 117.82 77.6803 117.42C77.6803 117.1 77.8003 116.753 78.0403 116.38C78.6003 115.54 79.207 114.973 79.8603 114.68C80.1403 114.547 80.4136 114.48 80.6803 114.48C80.8136 114.48 80.9603 114.52 81.1203 114.6C81.2803 114.667 81.3603 114.767 81.3603 114.9C81.3603 114.967 81.3136 115.007 81.2203 115.02C81.167 115.033 81.127 115.047 81.1003 115.06C81.087 115.073 81.0736 115.087 81.0603 115.1C80.7536 115.673 80.6003 116.207 80.6003 116.7C80.6003 117.327 80.847 117.64 81.3403 117.64C81.8603 117.64 82.507 117.233 83.2803 116.42C83.347 116.34 83.4003 116.3 83.4403 116.3C83.4803 116.3 83.5003 116.327 83.5003 116.38C83.5003 116.433 83.4803 116.493 83.4403 116.56C82.547 117.52 81.767 118 81.1003 118C80.7803 118 80.5203 117.86 80.3203 117.58C80.107 117.287 79.9936 116.933 79.9803 116.52C79.647 116.96 79.3136 117.327 78.9803 117.62C78.6336 117.887 78.3536 118.02 78.1403 118.02ZM78.5603 117.42C78.707 117.42 78.9003 117.32 79.1403 117.12C79.3536 116.933 79.5336 116.753 79.6803 116.58C79.827 116.393 79.9336 116.207 80.0003 116.02C80.027 115.793 80.067 115.593 80.1203 115.42C80.187 115.233 80.2536 115.067 80.3203 114.92C79.627 114.907 79.0336 115.387 78.5403 116.36C78.3936 116.627 78.3203 116.867 78.3203 117.08C78.3203 117.307 78.4003 117.42 78.5603 117.42ZM83.1138 118.02C83.0204 118.02 82.9404 117.98 82.8737 117.9C82.8071 117.82 82.7804 117.753 82.7937 117.7L83.3938 116.32C83.7404 115.507 83.9138 115.013 83.9138 114.84C83.9538 114.787 84.0871 114.707 84.3138 114.6C84.3671 114.573 84.4138 114.553 84.4538 114.54C84.4938 114.527 84.5338 114.52 84.5738 114.52C84.6671 114.52 84.7138 114.58 84.7138 114.7C84.6204 114.967 84.4804 115.313 84.2938 115.74C84.1204 116.153 83.8938 116.653 83.6138 117.24L85.7538 114.94C85.9404 114.74 86.0804 114.64 86.1738 114.64C86.2404 114.64 86.2738 114.68 86.2738 114.76C86.2738 114.787 86.2671 114.82 86.2538 114.86C86.2538 114.887 86.2471 114.92 86.2338 114.96C85.9538 115.933 85.8138 116.6 85.8138 116.96C85.8138 117.413 85.9671 117.64 86.2738 117.64C86.5538 117.64 86.8871 117.487 87.2738 117.18C87.3404 117.127 87.4404 117.033 87.5738 116.9C87.7204 116.767 87.8938 116.593 88.0938 116.38C88.1471 116.327 88.2004 116.3 88.2538 116.3C88.2938 116.3 88.3138 116.327 88.3138 116.38C88.3271 116.407 88.3138 116.453 88.2738 116.52C87.4338 117.453 86.6871 117.92 86.0337 117.92C85.4471 117.92 85.1538 117.46 85.1538 116.54C85.1538 116.433 85.1538 116.327 85.1538 116.22C85.1671 116.113 85.1804 116 85.1938 115.88L84.2538 116.78C84.1471 116.873 84.0404 116.973 83.9338 117.08C83.8404 117.187 83.7538 117.293 83.6738 117.4L83.2738 117.9C83.2338 117.98 83.1804 118.02 83.1138 118.02ZM88.9984 118.08C88.6118 118 88.4184 117.693 88.4184 117.16C88.4184 116.813 88.5051 116.473 88.6784 116.14L88.5584 116.26L88.0784 116.7C88.0384 116.753 87.9984 116.78 87.9584 116.78C87.8918 116.78 87.8584 116.747 87.8584 116.68C87.8851 116.613 87.9318 116.547 87.9984 116.48C88.2518 116.253 88.4918 116.02 88.7184 115.78C88.9451 115.527 89.1584 115.267 89.3584 115C89.4651 114.88 89.5851 114.82 89.7184 114.82C89.8784 114.82 89.9584 114.887 89.9584 115.02C89.9584 115.087 89.8384 115.32 89.5984 115.72C89.4651 115.947 89.3584 116.127 89.2784 116.26C89.1984 116.393 89.1518 116.473 89.1384 116.5C88.9918 116.82 88.9184 117.1 88.9184 117.34C88.9184 117.553 88.9718 117.673 89.0784 117.7L89.2184 117.72C89.4851 117.72 89.7851 117.54 90.1184 117.18C90.4518 116.807 90.7384 116.36 90.9784 115.84C90.9384 115.24 91.0051 114.767 91.1784 114.42C91.3384 114.127 91.5184 113.98 91.7184 113.98C91.9451 113.98 92.0584 114.127 92.0584 114.42C92.0584 114.46 92.0451 114.533 92.0184 114.64C91.9251 115.053 91.6851 115.42 91.2984 115.74C91.3118 116.033 91.4318 116.307 91.6584 116.56C91.8851 116.8 92.1584 116.92 92.4784 116.92C92.8384 116.92 93.1851 116.74 93.5184 116.38C93.6251 116.273 93.6851 116.253 93.6984 116.32C93.7118 116.333 93.7184 116.36 93.7184 116.4C93.7184 116.427 93.6984 116.473 93.6584 116.54C93.3118 116.927 92.9118 117.12 92.4584 117.12C92.1384 117.12 91.8518 117.027 91.5984 116.84C91.3451 116.64 91.1718 116.4 91.0784 116.12C90.8118 116.72 90.4718 117.213 90.0584 117.6C89.6584 117.973 89.3051 118.133 88.9984 118.08ZM93.6091 118.02C93.3024 118.02 93.1491 117.82 93.1491 117.42C93.1491 117.1 93.2691 116.753 93.5091 116.38C94.0691 115.54 94.6757 114.973 95.3291 114.68C95.6091 114.547 95.8824 114.48 96.1491 114.48C96.2824 114.48 96.4291 114.52 96.5891 114.6C96.7491 114.667 96.8291 114.767 96.8291 114.9C96.8291 114.967 96.7824 115.007 96.6891 115.02C96.6357 115.033 96.5957 115.047 96.5691 115.06C96.5557 115.073 96.5424 115.087 96.5291 115.1C96.2224 115.673 96.0691 116.207 96.0691 116.7C96.0691 117.327 96.3157 117.64 96.8091 117.64C97.3291 117.64 97.9757 117.233 98.7491 116.42C98.8157 116.34 98.8691 116.3 98.9091 116.3C98.9491 116.3 98.9691 116.327 98.9691 116.38C98.9691 116.433 98.9491 116.493 98.9091 116.56C98.0157 117.52 97.2357 118 96.5691 118C96.2491 118 95.9891 117.86 95.7891 117.58C95.5757 117.287 95.4624 116.933 95.4491 116.52C95.1157 116.96 94.7824 117.327 94.4491 117.62C94.1024 117.887 93.8224 118.02 93.6091 118.02ZM94.0291 117.42C94.1757 117.42 94.3691 117.32 94.6091 117.12C94.8224 116.933 95.0024 116.753 95.1491 116.58C95.2957 116.393 95.4024 116.207 95.4691 116.02C95.4957 115.793 95.5357 115.593 95.5891 115.42C95.6557 115.233 95.7224 115.067 95.7891 114.92C95.0957 114.907 94.5024 115.387 94.0091 116.36C93.8624 116.627 93.7891 116.867 93.7891 117.08C93.7891 117.307 93.8691 117.42 94.0291 117.42ZM99.6425 118.12C99.4425 118.12 99.2625 118.06 99.1025 117.94C98.9558 117.82 98.8625 117.673 98.8225 117.5C98.7692 117.327 98.7425 117.18 98.7425 117.06C98.7425 116.98 98.7558 116.927 98.7825 116.9C98.7825 116.793 98.8292 116.74 98.9225 116.74C98.9492 116.74 98.9692 116.747 98.9825 116.76C99.2225 117.053 99.5358 117.273 99.9225 117.42C99.9225 117.3 99.9025 117.173 99.8625 117.04C99.8092 116.84 99.7158 116.653 99.5825 116.48C99.3158 116.12 99.1825 115.733 99.1825 115.32C99.1825 114.36 99.7692 113.66 100.943 113.22C101.263 113.113 101.543 113.06 101.783 113.06C102.303 113.06 102.563 113.273 102.563 113.7C102.563 113.967 102.476 114.227 102.303 114.48C102.223 114.587 102.156 114.647 102.103 114.66C102.049 114.673 102.023 114.647 102.023 114.58C102.023 114.527 102.043 114.473 102.083 114.42C102.176 114.247 102.223 114.1 102.223 113.98C102.223 113.78 102.083 113.68 101.803 113.68C101.776 113.68 101.743 113.68 101.703 113.68C101.663 113.68 101.623 113.687 101.583 113.7C100.676 113.86 100.063 114.387 99.7425 115.28C99.7025 115.413 99.6825 115.54 99.6825 115.66C99.6825 115.873 99.7825 116.153 99.9825 116.5C100.196 116.847 100.309 117.12 100.323 117.32C100.323 117.427 100.316 117.5 100.303 117.54C100.383 117.553 100.463 117.567 100.543 117.58C100.623 117.58 100.703 117.58 100.783 117.58C101.023 117.58 101.249 117.553 101.463 117.5C101.809 117.407 102.136 117.273 102.443 117.1C102.749 116.913 103.029 116.673 103.283 116.38C103.323 116.327 103.369 116.3 103.423 116.3C103.476 116.3 103.503 116.333 103.503 116.4C103.503 116.467 103.476 116.527 103.423 116.58C102.716 117.247 102.049 117.64 101.423 117.76C101.183 117.8 100.956 117.82 100.743 117.82C100.649 117.82 100.556 117.82 100.463 117.82C100.383 117.807 100.303 117.793 100.223 117.78C100.076 118.007 99.8825 118.12 99.6425 118.12ZM99.5225 117.78C99.6292 117.78 99.7158 117.747 99.7825 117.68C99.4625 117.587 99.1825 117.42 98.9425 117.18C98.9425 117.353 99.0025 117.5 99.1225 117.62C99.2558 117.727 99.3892 117.78 99.5225 117.78ZM103.414 119.94C103.374 119.94 103.354 119.92 103.354 119.88C103.354 119.8 103.434 119.673 103.594 119.5C103.834 119.233 104.154 118.793 104.554 118.18C104.341 118.14 104.234 117.96 104.234 117.64C104.234 117.493 104.301 117.353 104.434 117.22C104.568 117.087 104.754 117.02 104.994 117.02C105.314 117.047 105.474 117.24 105.474 117.6C105.474 117.813 105.314 118.153 104.994 118.62C104.608 119.127 104.221 119.507 103.834 119.76C103.634 119.88 103.494 119.94 103.414 119.94ZM116.974 118.64C116.001 118.64 115.168 118.487 114.474 118.18C113.781 117.887 113.248 117.48 112.874 116.96C112.501 116.427 112.314 115.827 112.314 115.16C112.314 114.52 112.494 113.84 112.854 113.12C112.188 112.72 111.854 112.133 111.854 111.36C111.854 110.6 112.174 109.993 112.814 109.54C113.441 109.073 114.214 108.84 115.134 108.84C115.828 108.84 116.541 108.96 117.274 109.2C118.914 108.427 120.588 108.04 122.294 108.04C123.214 108.04 123.908 108.233 124.374 108.62C124.761 108.94 124.954 109.353 124.954 109.86C124.954 110.22 124.868 110.553 124.694 110.86C124.428 111.353 124.028 111.82 123.494 112.26C122.974 112.687 122.321 113.087 121.534 113.46L121.514 113.48C121.434 113.507 121.381 113.52 121.354 113.52C121.328 113.52 121.314 113.507 121.314 113.48C121.314 113.427 121.348 113.373 121.414 113.32C121.481 113.187 121.514 113.06 121.514 112.94C121.514 112.553 121.274 112.093 120.794 111.56C120.621 111.373 120.454 111.207 120.294 111.06C120.134 110.913 119.974 110.787 119.814 110.68C119.481 110.453 119.148 110.247 118.814 110.06C118.481 109.873 118.141 109.713 117.794 109.58C116.141 110.3 114.848 111.28 113.914 112.52C113.821 112.613 113.734 112.713 113.654 112.82C113.588 112.927 113.521 113.033 113.454 113.14C114.014 113.367 114.588 113.48 115.174 113.48C115.934 113.48 116.381 113.34 116.514 113.06C116.514 113.033 116.528 113.02 116.554 113.02C116.594 113.02 116.621 113.033 116.634 113.06C116.661 113.087 116.661 113.113 116.634 113.14C116.554 113.3 116.354 113.427 116.034 113.52C115.728 113.613 115.368 113.66 114.954 113.66C114.381 113.66 113.834 113.567 113.314 113.38C112.901 114.073 112.694 114.733 112.694 115.36C112.694 116.213 113.094 116.893 113.894 117.4C114.694 117.893 115.768 118.14 117.114 118.14C117.448 118.14 117.794 118.12 118.154 118.08C119.168 117.973 119.981 117.853 120.594 117.72C121.754 117.413 122.654 116.96 123.294 116.36C123.348 116.307 123.388 116.28 123.414 116.28C123.468 116.28 123.494 116.32 123.494 116.4C123.481 116.44 123.448 116.5 123.394 116.58C122.848 117.047 121.981 117.493 120.794 117.92C120.301 118.093 119.841 118.227 119.414 118.32C118.988 118.427 118.581 118.507 118.194 118.56C117.981 118.587 117.768 118.607 117.554 118.62C117.354 118.633 117.161 118.64 116.974 118.64ZM121.734 113.12C122.028 112.96 122.281 112.813 122.494 112.68C122.721 112.547 122.901 112.433 123.034 112.34C123.594 111.913 123.994 111.447 124.234 110.94C124.368 110.673 124.434 110.407 124.434 110.14C124.434 109.647 124.194 109.273 123.714 109.02C123.261 108.78 122.641 108.66 121.854 108.66C120.654 108.66 119.374 108.933 118.014 109.48C118.348 109.613 118.668 109.773 118.974 109.96C119.294 110.133 119.608 110.333 119.914 110.56C120.341 110.867 120.728 111.213 121.074 111.6C121.528 112.107 121.754 112.547 121.754 112.92C121.754 112.947 121.754 112.98 121.754 113.02C121.754 113.06 121.748 113.093 121.734 113.12ZM112.974 112.88C113.054 112.733 113.141 112.593 113.234 112.46C113.328 112.313 113.428 112.173 113.534 112.04C114.401 110.96 115.554 110.053 116.994 109.32C116.394 109.16 115.801 109.08 115.214 109.08C114.361 109.08 113.608 109.293 112.954 109.72C112.354 110.12 112.054 110.647 112.054 111.3C112.054 111.98 112.361 112.507 112.974 112.88ZM123.935 118.36C123.388 118.36 123.115 118.04 123.115 117.4C123.115 116.92 123.235 116.36 123.475 115.72C123.461 115.653 123.448 115.587 123.435 115.52C123.435 115.44 123.435 115.36 123.435 115.28C123.435 114.573 123.775 114.193 124.455 114.14C124.628 113.927 124.788 113.82 124.935 113.82C125.175 113.82 125.295 113.887 125.295 114.02C125.295 114.06 125.275 114.1 125.235 114.14L125.175 114.2C125.481 114.293 125.735 114.467 125.935 114.72C126.135 114.973 126.235 115.247 126.235 115.54C126.235 116.06 126.095 116.573 125.815 117.08L125.775 117.12C126.561 117.093 127.195 116.833 127.675 116.34C127.715 116.3 127.761 116.28 127.815 116.28C127.855 116.28 127.875 116.313 127.875 116.38C127.875 116.447 127.835 116.513 127.755 116.58C127.128 117.127 126.408 117.4 125.595 117.4C125.368 117.68 125.101 117.907 124.795 118.08C124.488 118.267 124.201 118.36 123.935 118.36ZM125.375 117.1C125.668 116.553 125.815 116.027 125.815 115.52C125.815 115.213 125.741 114.953 125.595 114.74C125.448 114.527 125.248 114.407 124.995 114.38C124.595 114.82 124.275 115.333 124.035 115.92C124.195 116.613 124.641 117.007 125.375 117.1ZM124.215 118C124.588 118 124.921 117.793 125.215 117.38C124.601 117.3 124.135 117.047 123.815 116.62C123.788 116.753 123.761 116.88 123.735 117C123.721 117.12 123.715 117.227 123.715 117.32C123.715 117.773 123.881 118 124.215 118ZM128.969 118.48C128.329 118.48 128.009 118.147 128.009 117.48C128.009 117.267 128.049 117.013 128.129 116.72C127.663 116.187 127.429 115.613 127.429 115C127.429 114.547 127.556 114.193 127.809 113.94C128.076 113.633 128.449 113.48 128.929 113.48C129.116 113.48 129.309 113.5 129.509 113.54C130.029 112.58 130.503 111.78 130.929 111.14C131.369 110.487 131.763 109.993 132.109 109.66C132.189 109.58 132.309 109.54 132.469 109.54C132.776 109.54 132.929 109.613 132.929 109.76C132.929 109.8 132.909 109.84 132.869 109.88C132.189 110.52 131.276 111.8 130.129 113.72C130.996 114.12 131.429 114.773 131.429 115.68C131.429 116.227 131.216 116.793 130.789 117.38C131.483 117.273 132.096 116.933 132.629 116.36C132.696 116.32 132.743 116.3 132.769 116.3C132.809 116.3 132.829 116.327 132.829 116.38C132.829 116.447 132.789 116.513 132.709 116.58C132.003 117.207 131.289 117.573 130.569 117.68C130.076 118.213 129.543 118.48 128.969 118.48ZM128.289 116.18C128.383 115.9 128.509 115.58 128.669 115.22C128.843 114.86 129.043 114.467 129.269 114.04L129.389 113.8C128.923 113.76 128.563 113.867 128.309 114.12C128.083 114.347 127.969 114.653 127.969 115.04C127.969 115.427 128.076 115.807 128.289 116.18ZM130.089 117.4C130.249 117.2 130.363 117.02 130.429 116.86C130.709 116.3 130.849 115.787 130.849 115.32C130.849 114.587 130.576 114.127 130.029 113.94C129.856 114.233 129.689 114.54 129.529 114.86C129.369 115.167 129.216 115.473 129.069 115.78C128.909 116.127 128.789 116.433 128.709 116.7C129.123 117.087 129.583 117.32 130.089 117.4ZM128.929 118.22C129.209 118.22 129.516 118.033 129.849 117.66C129.423 117.607 129.009 117.433 128.609 117.14C128.569 117.313 128.549 117.467 128.549 117.6C128.549 118.013 128.676 118.22 128.929 118.22ZM132.73 118.02C132.423 118.02 132.27 117.82 132.27 117.42C132.27 117.1 132.39 116.753 132.63 116.38C133.19 115.54 133.797 114.973 134.45 114.68C134.73 114.547 135.003 114.48 135.27 114.48C135.403 114.48 135.55 114.52 135.71 114.6C135.87 114.667 135.95 114.767 135.95 114.9C135.95 114.967 135.903 115.007 135.81 115.02C135.757 115.033 135.717 115.047 135.69 115.06C135.677 115.073 135.663 115.087 135.65 115.1C135.343 115.673 135.19 116.207 135.19 116.7C135.19 117.327 135.437 117.64 135.93 117.64C136.45 117.64 137.097 117.233 137.87 116.42C137.937 116.34 137.99 116.3 138.03 116.3C138.07 116.3 138.09 116.327 138.09 116.38C138.09 116.433 138.07 116.493 138.03 116.56C137.137 117.52 136.357 118 135.69 118C135.37 118 135.11 117.86 134.91 117.58C134.697 117.287 134.583 116.933 134.57 116.52C134.237 116.96 133.903 117.327 133.57 117.62C133.223 117.887 132.943 118.02 132.73 118.02ZM133.15 117.42C133.297 117.42 133.49 117.32 133.73 117.12C133.943 116.933 134.123 116.753 134.27 116.58C134.417 116.393 134.523 116.207 134.59 116.02C134.617 115.793 134.657 115.593 134.71 115.42C134.777 115.233 134.843 115.067 134.91 114.92C134.217 114.907 133.623 115.387 133.13 116.36C132.983 116.627 132.91 116.867 132.91 117.08C132.91 117.307 132.99 117.42 133.15 117.42ZM138.844 118C138.217 117.973 137.904 117.6 137.904 116.88C137.904 116.693 137.924 116.467 137.964 116.2C138.017 115.933 138.09 115.627 138.184 115.28C138.317 114.827 138.504 114.327 138.744 113.78C138.984 113.22 139.284 112.613 139.644 111.96C140.564 110.253 141.35 109.4 142.004 109.4C142.364 109.4 142.544 109.613 142.544 110.04C142.544 110.227 142.504 110.433 142.424 110.66C142.05 111.847 140.937 113.233 139.084 114.82C138.697 115.527 138.504 116.227 138.504 116.92C138.504 117.453 138.677 117.72 139.024 117.72C139.25 117.72 139.53 117.62 139.864 117.42C140.05 117.313 140.244 117.18 140.444 117.02C140.644 116.847 140.85 116.647 141.064 116.42C141.144 116.327 141.21 116.28 141.264 116.28C141.317 116.293 141.344 116.327 141.344 116.38C141.344 116.433 141.317 116.487 141.264 116.54C140.33 117.54 139.524 118.027 138.844 118ZM139.244 114.42C139.51 114.153 139.77 113.873 140.024 113.58C140.29 113.287 140.55 112.973 140.804 112.64C141.097 112.253 141.344 111.893 141.544 111.56C141.757 111.227 141.917 110.913 142.024 110.62C142.117 110.38 142.164 110.18 142.164 110.02C142.164 109.807 142.09 109.7 141.944 109.7C141.717 109.7 141.464 109.947 141.184 110.44C140.81 111.067 140.464 111.713 140.144 112.38C139.824 113.047 139.524 113.727 139.244 114.42ZM142.266 118C141.733 117.987 141.406 117.713 141.286 117.18C141.273 117.087 141.26 117 141.246 116.92C141.246 116.84 141.246 116.76 141.246 116.68C141.246 116.173 141.386 115.593 141.666 114.94C141.493 114.953 141.366 114.96 141.286 114.96C141.206 114.96 141.18 114.967 141.206 114.98C140.993 114.953 140.886 114.867 140.886 114.72V114.68C140.886 114.587 140.98 114.54 141.166 114.54L141.526 114.52H141.886C141.94 114.413 142.02 114.26 142.126 114.06C142.233 113.847 142.373 113.593 142.546 113.3C142.64 113.14 142.746 112.96 142.866 112.76C143 112.56 143.14 112.347 143.286 112.12C143.473 111.96 143.7 111.88 143.966 111.88C144.206 111.88 144.326 111.94 144.326 112.06C144.326 112.087 144.313 112.113 144.286 112.14C144.113 112.38 143.893 112.7 143.626 113.1C143.36 113.5 143.046 113.973 142.686 114.52H144.646C144.766 114.56 144.826 114.613 144.826 114.68C144.826 114.8 144.68 114.88 144.386 114.92C144.333 114.933 144.146 114.94 143.826 114.94C143.506 114.94 143.053 114.94 142.466 114.94C142.053 115.713 141.846 116.34 141.846 116.82C141.846 117.367 142.08 117.64 142.546 117.64C142.773 117.64 143.02 117.567 143.286 117.42C143.473 117.313 143.666 117.18 143.866 117.02C144.066 116.847 144.273 116.647 144.486 116.42C144.553 116.34 144.613 116.3 144.666 116.3C144.72 116.3 144.746 116.327 144.746 116.38C144.746 116.447 144.726 116.5 144.686 116.54C143.753 117.527 142.946 118.013 142.266 118ZM153.854 118.56C152.854 118.56 152.074 118.32 151.514 117.84C150.994 117.413 150.734 116.873 150.734 116.22C150.734 115.46 151.04 114.793 151.654 114.22C152.32 113.567 153.22 113.18 154.354 113.06C154.127 112.753 154.014 112.4 154.014 112C154.014 111.16 154.46 110.46 155.354 109.9C156.06 109.447 156.834 109.22 157.674 109.22C158.154 109.22 158.534 109.293 158.814 109.44C159.147 109.64 159.314 109.933 159.314 110.32C159.314 110.56 159.234 110.773 159.074 110.96C158.927 111.147 158.754 111.24 158.554 111.24C158.38 111.24 158.234 111.18 158.114 111.06C158.007 110.94 157.954 110.8 157.954 110.64C157.967 110.267 158.154 110.08 158.514 110.08C158.767 110.08 158.92 110.153 158.974 110.3V110.14C158.974 109.74 158.68 109.54 158.094 109.54C157.267 109.54 156.467 109.887 155.694 110.58C155.56 110.687 155.44 110.813 155.334 110.96C155.227 111.107 155.12 111.267 155.014 111.44C154.787 111.827 154.674 112.187 154.674 112.52C154.674 112.693 154.707 112.86 154.774 113.02C154.974 113.007 155.14 113 155.274 113C155.42 113 155.54 113 155.634 113C156.154 113 156.414 113.14 156.414 113.42C156.414 113.66 156.2 113.78 155.774 113.78C155.32 113.78 154.9 113.6 154.514 113.24C153.74 113.36 153.107 113.747 152.614 114.4C152.174 114.973 151.954 115.633 151.954 116.38C151.954 116.94 152.107 117.407 152.414 117.78C152.747 118.193 153.227 118.4 153.854 118.4C154.68 118.4 155.4 118.113 156.014 117.54C156.587 117.02 156.874 116.473 156.874 115.9C156.874 115.607 156.714 115.373 156.394 115.2C156.1 115.027 155.72 114.94 155.254 114.94C154.774 114.94 154.347 115.033 153.974 115.22C153.52 115.447 153.294 115.753 153.294 116.14C153.294 116.54 153.567 116.887 154.114 117.18C154.194 117.22 154.234 117.287 154.234 117.38C154.234 117.42 154.214 117.44 154.174 117.44H154.114C153.234 116.96 152.794 116.42 152.794 115.82C152.794 115.433 152.994 115.113 153.394 114.86C153.847 114.593 154.42 114.46 155.114 114.46H157.334C157.694 114.46 158.154 114.347 158.714 114.12C159.38 113.853 159.714 113.547 159.714 113.2C159.714 113.08 159.674 112.96 159.594 112.84C159.514 112.733 159.527 112.68 159.634 112.68C159.687 112.68 159.72 112.7 159.734 112.74C159.854 112.913 159.914 113.1 159.914 113.3C159.914 113.58 159.774 113.84 159.494 114.08C159.227 114.32 158.874 114.513 158.434 114.66C158.007 114.793 157.554 114.86 157.074 114.86C157.38 115.127 157.534 115.453 157.534 115.84C157.534 116.507 157.187 117.107 156.494 117.64C155.76 118.253 154.88 118.56 153.854 118.56ZM155.774 113.58C156.054 113.58 156.194 113.527 156.194 113.42C156.194 113.3 156.067 113.233 155.814 113.22C155.654 113.207 155.494 113.2 155.334 113.2C155.174 113.187 155.02 113.187 154.874 113.2C155.087 113.453 155.387 113.58 155.774 113.58ZM169.181 118.64C168.208 118.64 167.375 118.487 166.681 118.18C165.988 117.887 165.455 117.48 165.081 116.96C164.708 116.427 164.521 115.827 164.521 115.16C164.521 114.52 164.701 113.84 165.061 113.12C164.395 112.72 164.061 112.133 164.061 111.36C164.061 110.6 164.381 109.993 165.021 109.54C165.648 109.073 166.421 108.84 167.341 108.84C168.035 108.84 168.748 108.96 169.481 109.2C171.121 108.427 172.795 108.04 174.501 108.04C175.421 108.04 176.115 108.233 176.581 108.62C176.968 108.94 177.161 109.353 177.161 109.86C177.161 110.22 177.075 110.553 176.901 110.86C176.635 111.353 176.235 111.82 175.701 112.26C175.181 112.687 174.528 113.087 173.741 113.46L173.721 113.48C173.641 113.507 173.588 113.52 173.561 113.52C173.535 113.52 173.521 113.507 173.521 113.48C173.521 113.427 173.555 113.373 173.621 113.32C173.688 113.187 173.721 113.06 173.721 112.94C173.721 112.553 173.481 112.093 173.001 111.56C172.828 111.373 172.661 111.207 172.501 111.06C172.341 110.913 172.181 110.787 172.021 110.68C171.688 110.453 171.355 110.247 171.021 110.06C170.688 109.873 170.348 109.713 170.001 109.58C168.348 110.3 167.055 111.28 166.121 112.52C166.028 112.613 165.941 112.713 165.861 112.82C165.795 112.927 165.728 113.033 165.661 113.14C166.221 113.367 166.795 113.48 167.381 113.48C168.141 113.48 168.588 113.34 168.721 113.06C168.721 113.033 168.735 113.02 168.761 113.02C168.801 113.02 168.828 113.033 168.841 113.06C168.868 113.087 168.868 113.113 168.841 113.14C168.761 113.3 168.561 113.427 168.241 113.52C167.935 113.613 167.575 113.66 167.161 113.66C166.588 113.66 166.041 113.567 165.521 113.38C165.108 114.073 164.901 114.733 164.901 115.36C164.901 116.213 165.301 116.893 166.101 117.4C166.901 117.893 167.975 118.14 169.321 118.14C169.655 118.14 170.001 118.12 170.361 118.08C171.375 117.973 172.188 117.853 172.801 117.72C173.961 117.413 174.861 116.96 175.501 116.36C175.555 116.307 175.595 116.28 175.621 116.28C175.675 116.28 175.701 116.32 175.701 116.4C175.688 116.44 175.655 116.5 175.601 116.58C175.055 117.047 174.188 117.493 173.001 117.92C172.508 118.093 172.048 118.227 171.621 118.32C171.195 118.427 170.788 118.507 170.401 118.56C170.188 118.587 169.975 118.607 169.761 118.62C169.561 118.633 169.368 118.64 169.181 118.64ZM173.941 113.12C174.235 112.96 174.488 112.813 174.701 112.68C174.928 112.547 175.108 112.433 175.241 112.34C175.801 111.913 176.201 111.447 176.441 110.94C176.575 110.673 176.641 110.407 176.641 110.14C176.641 109.647 176.401 109.273 175.921 109.02C175.468 108.78 174.848 108.66 174.061 108.66C172.861 108.66 171.581 108.933 170.221 109.48C170.555 109.613 170.875 109.773 171.181 109.96C171.501 110.133 171.815 110.333 172.121 110.56C172.548 110.867 172.935 111.213 173.281 111.6C173.735 112.107 173.961 112.547 173.961 112.92C173.961 112.947 173.961 112.98 173.961 113.02C173.961 113.06 173.955 113.093 173.941 113.12ZM165.181 112.88C165.261 112.733 165.348 112.593 165.441 112.46C165.535 112.313 165.635 112.173 165.741 112.04C166.608 110.96 167.761 110.053 169.201 109.32C168.601 109.16 168.008 109.08 167.421 109.08C166.568 109.08 165.815 109.293 165.161 109.72C164.561 110.12 164.261 110.647 164.261 111.3C164.261 111.98 164.568 112.507 165.181 112.88ZM176.142 118.36C175.595 118.36 175.322 118.04 175.322 117.4C175.322 116.92 175.442 116.36 175.682 115.72C175.668 115.653 175.655 115.587 175.642 115.52C175.642 115.44 175.642 115.36 175.642 115.28C175.642 114.573 175.982 114.193 176.662 114.14C176.835 113.927 176.995 113.82 177.142 113.82C177.382 113.82 177.502 113.887 177.502 114.02C177.502 114.06 177.482 114.1 177.442 114.14L177.382 114.2C177.688 114.293 177.942 114.467 178.142 114.72C178.342 114.973 178.442 115.247 178.442 115.54C178.442 116.06 178.302 116.573 178.022 117.08L177.982 117.12C178.768 117.093 179.402 116.833 179.882 116.34C179.922 116.3 179.968 116.28 180.022 116.28C180.062 116.28 180.082 116.313 180.082 116.38C180.082 116.447 180.042 116.513 179.962 116.58C179.335 117.127 178.615 117.4 177.802 117.4C177.575 117.68 177.308 117.907 177.002 118.08C176.695 118.267 176.408 118.36 176.142 118.36ZM177.582 117.1C177.875 116.553 178.022 116.027 178.022 115.52C178.022 115.213 177.948 114.953 177.802 114.74C177.655 114.527 177.455 114.407 177.202 114.38C176.802 114.82 176.482 115.333 176.242 115.92C176.402 116.613 176.848 117.007 177.582 117.1ZM176.422 118C176.795 118 177.128 117.793 177.422 117.38C176.808 117.3 176.342 117.047 176.022 116.62C175.995 116.753 175.968 116.88 175.942 117C175.928 117.12 175.922 117.227 175.922 117.32C175.922 117.773 176.088 118 176.422 118ZM181.416 118.38C181.243 118.38 181.096 118.327 180.976 118.22C180.87 118.113 180.816 117.98 180.816 117.82C180.816 117.66 180.87 117.527 180.976 117.42C181.096 117.3 181.243 117.24 181.416 117.24C181.576 117.24 181.716 117.3 181.836 117.42C181.956 117.527 182.016 117.66 182.016 117.82C182.016 117.98 181.956 118.113 181.836 118.22C181.716 118.327 181.576 118.38 181.416 118.38Z" fill="#0047AB"/>
</svg>
