<svg width="250" height="150" viewBox="0 0 250 150" fill="none" xmlns="http://www.w3.org/2000/svg">
<path fill-rule="evenodd" clip-rule="evenodd" d="M31.84 118.84C42.5067 130.253 57.0133 135.96 75.36 135.96C89.44 135.96 101.6 134.52 111.84 131.64C113.12 131.427 113.813 130.733 113.92 129.56C114.066 128.042 114.225 126.526 114.399 125.012C115.498 124.904 116.701 124.82 118.008 124.76C118.051 124.589 118.072 124.376 118.072 124.12C118.072 123.821 118.029 123.373 117.944 122.776C116.639 122.776 115.551 122.741 114.68 122.672C115.361 117.208 116.228 111.771 117.28 106.36C115.893 105.293 113.92 104.76 111.36 104.76C109.069 110.896 107.061 115.683 105.335 119.12C103.295 117.788 101.183 116.084 99 114.008C101.091 109.912 102.669 106.563 103.736 103.96C104.76 101.613 105.976 99.3947 107.384 97.304C109.133 94.744 111.331 93.336 113.976 93.08L114.104 92.568C114.104 92.312 113.976 91.9493 113.72 91.48C112.355 91.6933 109.88 91.8 106.296 91.8L98.616 91.672C98.4453 92.0133 98.36 92.3333 98.36 92.632C98.36 92.9307 98.4453 93.2507 98.616 93.592C100.408 93.592 101.944 93.72 103.224 93.976C102.243 100.12 100.237 106.179 97.208 112.152L95.416 110.424C91.2773 106.499 87.544 102.616 84.216 98.776C82.0827 96.3013 80.44 93.9333 79.288 91.672C78.1787 89.368 77.624 87.2773 77.624 85.4C77.624 83.5227 78.072 82.0507 78.968 80.984C79.9067 79.9173 81.1653 79.384 82.744 79.384C84.3653 79.384 85.7733 80.024 86.968 81.304C88.1627 82.5413 88.76 84.0773 88.76 85.912C88.76 87.7467 88.0133 89.432 86.52 90.968L87.736 92.056C87.7787 92.0133 88.1413 91.7573 88.824 91.288C89.5067 90.8187 90.296 90.136 91.192 89.24C92.344 88.088 92.92 86.7653 92.92 85.272C92.92 83.1387 91.9813 81.3467 90.104 79.896C88.2267 78.4027 86.0933 77.656 83.704 77.656C80.376 78.04 77.6453 79.0427 75.512 80.664C73.4213 82.2427 72.376 84.4827 72.376 87.384C72.376 90.2853 73.592 93.72 76.024 97.688C73.1227 100.077 70.8827 102.424 69.304 104.728C67.768 106.989 67 109.72 67 112.92C67 116.845 68.5147 120.024 71.544 122.456C74.616 124.845 78.392 126.04 82.872 126.04C85.944 125.656 88.4827 124.909 90.488 123.8C92.4933 122.691 94.3067 121.069 95.928 118.936C97.976 120.643 99.9173 122.072 101.752 123.224L101.77 123.235C94.9119 127.452 87.1752 129.56 78.56 129.56C69.0667 129.56 60.8533 126.627 53.92 120.76C47.0933 114.787 41.92 107.213 38.4 98.04C34.9867 88.8667 33.28 79.0533 33.28 68.6C33.28 60.8621 34.355 53.9812 36.5049 47.9574L23.6927 44.5244C18.5642 53.4896 16 63.8081 16 75.48C16 92.8667 21.28 107.32 31.84 118.84ZM29.8393 35.8186C30.9226 34.5522 32.0695 33.3193 33.28 32.12C44.8 20.7067 59.52 15 77.44 15C91.6267 15 104.213 16.76 115.2 20.28C115.733 20.6 116 21.0267 116 21.56C116 21.9867 115.84 23.64 115.52 26.52C114.133 36.44 113.387 43.6933 113.28 48.28C111.68 48.6 110.56 48.76 109.92 48.76C109.28 48.76 108.32 48.5467 107.04 48.12C106.08 40.76 105.12 35.2667 104.16 31.64C101.387 28.6533 97.4933 26.0933 92.48 23.96C87.4667 21.8267 81.76 20.76 75.36 20.76C63.2 20.76 53.12 25.0267 45.12 33.56C43.6071 35.1956 42.2392 36.9467 41.0163 38.8135L29.8393 35.8186ZM223.36 111.64C225.935 108.379 228.13 104.427 229.945 99.7849L216.972 96.3088C215.554 103.69 212.777 110.081 208.64 115.48C202.453 123.587 193.333 127.64 181.28 127.64C172.64 127.64 164.8 124.6 157.76 118.52C150.72 112.44 145.333 104.813 141.6 95.64C138.947 88.8514 137.264 81.8915 136.552 74.7604L120.175 70.3723C120.058 72.0913 120 73.8472 120 75.64C120 92.7067 125.493 107.053 136.48 118.68C147.467 130.2 160.747 135.96 176.32 135.96C179.2 135.96 183.467 135.16 189.12 133.56C192.96 132.493 196.747 131.16 200.48 129.56C204.32 127.853 208.32 125.453 212.48 122.36C216.64 119.16 220.267 115.587 223.36 111.64ZM234.4 75.64C234.4 80.7778 233.895 85.6377 232.885 90.2199L218.046 86.2439C218.069 85.4909 218.08 84.7296 218.08 83.96C218.08 74.04 216.267 64.4933 212.64 55.32C209.12 46.1467 203.893 38.52 196.96 32.44C190.027 26.2533 182.24 23.16 173.6 23.16C161.547 23.16 152.267 27.3733 145.76 35.8C139.8 43.5476 136.616 53.0525 136.205 64.3148L121.6 60.4012C122.003 58.6059 122.483 56.8588 123.04 55.16C125.173 48.8667 127.787 43.6933 130.88 39.64C134.08 35.5867 137.76 32.0133 141.92 28.92C146.08 25.72 150.08 23.2667 153.92 21.56C157.76 19.8533 161.547 18.4667 165.28 17.4C170.827 15.8 175.147 15 178.24 15C193.707 15 206.933 20.92 217.92 32.76C228.907 44.4933 234.4 58.7867 234.4 75.64ZM84.28 123.032C87.8213 123.032 91.0427 121.112 93.944 117.272C86.4347 110.36 80.952 104.557 77.496 99.864C75.96 101.613 74.8933 103.171 74.296 104.536C73.7413 105.901 73.464 107.544 73.464 109.464C73.464 111.384 73.656 113.069 74.04 114.52C74.424 115.928 75 117.293 75.768 118.616C76.5787 119.939 77.7093 121.005 79.16 121.816C80.6107 122.627 82.3173 123.032 84.28 123.032ZM78.308 61.76L75.2 52.976H73.892L70.784 61.76H72.176L73.052 59.24H75.668L76.532 61.76H78.308ZM73.46 58.064L74.36 55.064L75.272 58.064H73.46ZM84.3783 58.244L80.9223 52.988H78.9543L79.1223 53.72V61.76H80.4543V55.796C80.4543 55.66 80.4463 55.524 80.4303 55.388C80.4143 55.252 80.3983 55.12 80.3823 54.992C80.4623 55.12 80.5463 55.252 80.6343 55.388C80.7223 55.524 80.8063 55.66 80.8863 55.796L84.8343 61.82H86.1303V52.988H84.7983V58.112C84.7983 58.264 84.8063 58.42 84.8223 58.58C84.8463 58.732 84.8623 58.884 84.8703 59.036C84.7903 58.9 84.7103 58.768 84.6303 58.64C84.5503 58.504 84.4663 58.372 84.3783 58.244ZM90.3647 58.004L88.6487 52.988H86.8967L89.9207 61.784H91.0967L94.1327 52.988H92.8007L91.1807 57.728C91.0847 58 90.9967 58.272 90.9167 58.544C90.8447 58.816 90.7767 59.092 90.7127 59.372C90.6647 59.14 90.6127 58.912 90.5567 58.688C90.5007 58.456 90.4367 58.228 90.3647 58.004ZM101.019 61.76L97.9109 52.976H96.6029L93.4949 61.76H94.8869L95.7629 59.24H98.3789L99.2429 61.76H101.019ZM96.1709 58.064L97.0709 55.064L97.9829 58.064H96.1709ZM105.685 53.024C105.261 52.896 104.825 52.832 104.377 52.832C103.865 52.832 103.381 52.92 102.925 53.096C102.469 53.272 102.097 53.544 101.809 53.912C101.521 54.28 101.377 54.756 101.377 55.34C101.377 55.708 101.441 56.028 101.569 56.3C101.697 56.564 101.865 56.788 102.073 56.972C102.281 57.156 102.513 57.32 102.769 57.464C103.025 57.6 103.285 57.728 103.549 57.848C103.845 57.984 104.121 58.124 104.377 58.268C104.633 58.412 104.841 58.58 105.001 58.772C105.161 58.956 105.241 59.192 105.241 59.48C105.241 59.76 105.169 59.996 105.025 60.188C104.881 60.372 104.697 60.512 104.473 60.608C104.249 60.704 104.009 60.752 103.753 60.752C103.369 60.752 102.993 60.672 102.625 60.512C102.257 60.344 101.933 60.132 101.653 59.876L101.089 61.208C101.513 61.456 101.965 61.636 102.445 61.748C102.933 61.852 103.421 61.904 103.909 61.904C104.453 61.904 104.957 61.8 105.421 61.592C105.893 61.384 106.273 61.076 106.561 60.668C106.849 60.26 106.993 59.764 106.993 59.18C106.993 58.748 106.913 58.384 106.753 58.088C106.593 57.792 106.385 57.544 106.129 57.344C105.873 57.136 105.593 56.96 105.289 56.816L104.425 56.396C104.185 56.276 103.965 56.156 103.765 56.036C103.573 55.908 103.417 55.76 103.297 55.592C103.185 55.424 103.129 55.224 103.129 54.992C103.129 54.648 103.257 54.396 103.513 54.236C103.769 54.068 104.053 53.984 104.365 53.984C104.645 53.984 104.937 54.036 105.241 54.14C105.545 54.244 105.805 54.392 106.021 54.584L106.849 53.552C106.505 53.32 106.117 53.144 105.685 53.024ZM109.185 60.584C109.033 60.376 108.813 60.272 108.525 60.272C108.325 60.272 108.149 60.34 107.997 60.476C107.853 60.612 107.781 60.784 107.781 60.992C107.781 61.192 107.829 61.348 107.925 61.46C108.029 61.572 108.129 61.668 108.225 61.748C108.329 61.82 108.381 61.912 108.381 62.024C108.381 62.128 108.345 62.232 108.273 62.336C108.209 62.44 108.129 62.536 108.033 62.624C107.945 62.72 107.865 62.804 107.793 62.876L107.997 63.08L108.201 63.284C108.529 63.052 108.813 62.764 109.053 62.42C109.301 62.084 109.425 61.708 109.425 61.292C109.425 61.02 109.345 60.784 109.185 60.584ZM75.14 73.892C74.468 73.892 73.872 73.776 73.352 73.544C72.84 73.312 72.408 72.992 72.056 72.584C71.704 72.168 71.436 71.684 71.252 71.132C71.076 70.58 70.988 69.988 70.988 69.356C70.988 68.716 71.076 68.124 71.252 67.58C71.436 67.028 71.704 66.548 72.056 66.14C72.416 65.732 72.852 65.416 73.364 65.192C73.884 64.96 74.48 64.844 75.152 64.844C75.84 64.844 76.444 64.956 76.964 65.18C77.492 65.404 77.932 65.72 78.284 66.128C78.644 66.536 78.916 67.016 79.1 67.568C79.284 68.12 79.376 68.724 79.376 69.38C79.376 70.028 79.28 70.628 79.088 71.18C78.896 71.724 78.616 72.2 78.248 72.608C77.888 73.016 77.444 73.332 76.916 73.556C76.396 73.78 75.804 73.892 75.14 73.892ZM75.188 72.752C75.652 72.752 76.036 72.656 76.34 72.464C76.652 72.264 76.9 72.004 77.084 71.684C77.268 71.356 77.4 70.996 77.48 70.604C77.56 70.212 77.6 69.82 77.6 69.428C77.6 69.036 77.56 68.64 77.48 68.24C77.408 67.832 77.28 67.46 77.096 67.124C76.912 66.78 76.66 66.504 76.34 66.296C76.028 66.088 75.636 65.984 75.164 65.984C74.7 65.984 74.312 66.084 74 66.284C73.696 66.476 73.452 66.736 73.268 67.064C73.084 67.392 72.952 67.752 72.872 68.144C72.792 68.536 72.752 68.924 72.752 69.308C72.752 69.7 72.792 70.1 72.872 70.508C72.952 70.908 73.084 71.28 73.268 71.624C73.452 71.96 73.7 72.232 74.012 72.44C74.324 72.648 74.716 72.752 75.188 72.752ZM86.2317 67.028C86.2317 67.372 86.1517 67.684 85.9917 67.964C85.8317 68.236 85.6157 68.46 85.3437 68.636C85.0717 68.812 84.7717 68.924 84.4437 68.972C84.8357 69.036 85.1957 69.176 85.5237 69.392C85.8597 69.6 86.1277 69.868 86.3277 70.196C86.5357 70.524 86.6397 70.9 86.6397 71.324C86.6397 71.772 86.5477 72.152 86.3637 72.464C86.1877 72.776 85.9477 73.028 85.6437 73.22C85.3397 73.412 84.9997 73.552 84.6237 73.64C84.2477 73.72 83.8677 73.76 83.4837 73.76H80.4117V65.708C80.4117 65.7 80.3957 65.64 80.3637 65.528C80.3397 65.416 80.3157 65.3 80.2917 65.18C80.2677 65.06 80.2517 64.992 80.2437 64.976H83.3637C83.7077 64.976 84.0477 65.008 84.3837 65.072C84.7277 65.128 85.0357 65.232 85.3077 65.384C85.5877 65.528 85.8117 65.736 85.9797 66.008C86.1477 66.272 86.2317 66.612 86.2317 67.028ZM84.4917 67.256C84.4917 67 84.4397 66.792 84.3357 66.632C84.2317 66.472 84.0877 66.356 83.9037 66.284C83.7197 66.204 83.5077 66.164 83.2677 66.164H82.0677V68.408H83.3037C83.5277 68.408 83.7277 68.36 83.9037 68.264C84.0877 68.168 84.2317 68.036 84.3357 67.868C84.4397 67.692 84.4917 67.488 84.4917 67.256ZM84.8997 71.132C84.8997 70.772 84.8077 70.48 84.6237 70.256C84.4397 70.024 84.2037 69.856 83.9157 69.752C83.6277 69.648 83.3237 69.596 83.0037 69.596H82.0677V72.572H83.3757C83.6717 72.572 83.9317 72.516 84.1557 72.404C84.3877 72.292 84.5677 72.128 84.6957 71.912C84.8317 71.696 84.8997 71.436 84.8997 71.132ZM91.4187 64.976L94.5267 73.76H92.7507L91.8867 71.24H89.2708L88.3947 73.76H87.0027L90.1107 64.976H91.4187ZM90.5788 67.064L89.6787 70.064H91.4907L90.5788 67.064ZM95.1851 64.976H97.0091V72.572H100.453V73.76H95.3411V65.708L95.1851 64.976ZM102.204 66.164H99.7676V64.976H106.392V66.164H103.92V73.76H102.204V66.164ZM222.304 130.12C222.912 131.464 223.84 132.664 225.088 133.72C225.696 133.432 226.368 133.032 227.104 132.52C227.84 131.976 228.352 131.48 228.64 131.032C228.224 129.848 227.36 128.632 226.048 127.384C224.704 127.992 223.456 128.904 222.304 130.12Z" fill="black"/>
</svg>
