<svg width="27" height="27" viewBox="0 0 27 27" fill="none" xmlns="http://www.w3.org/2000/svg">
<g clip-path="url(#clip0_21_101)">
<path d="M13.5 0C14.7393 0 15.9346 0.158203 17.0859 0.474609C18.2373 0.791016 19.314 1.24365 20.3159 1.83252C21.3179 2.42139 22.2275 3.12451 23.0449 3.94189C23.8623 4.75928 24.5654 5.67334 25.1543 6.68408C25.7432 7.69482 26.1958 8.77148 26.5122 9.91406C26.8286 11.0566 26.9912 12.252 27 13.5C27 14.7393 26.8418 15.9346 26.5254 17.0859C26.209 18.2373 25.7563 19.314 25.1675 20.3159C24.5786 21.3179 23.8755 22.2275 23.0581 23.0449C22.2407 23.8623 21.3267 24.5654 20.3159 25.1543C19.3052 25.7432 18.2285 26.1958 17.0859 26.5122C15.9434 26.8286 14.748 26.9912 13.5 27C12.2607 27 11.0654 26.8418 9.91406 26.5254C8.7627 26.209 7.68604 25.7563 6.68408 25.1675C5.68213 24.5786 4.77246 23.8755 3.95508 23.0581C3.1377 22.2407 2.43457 21.3267 1.8457 20.3159C1.25684 19.3052 0.804199 18.2329 0.487793 17.0991C0.171387 15.9653 0.00878906 14.7656 0 13.5C0 12.2607 0.158203 11.0654 0.474609 9.91406C0.791016 8.7627 1.24365 7.68604 1.83252 6.68408C2.42139 5.68213 3.12451 4.77246 3.94189 3.95508C4.75928 3.1377 5.67334 2.43457 6.68408 1.8457C7.69482 1.25684 8.76709 0.804199 9.90088 0.487793C11.0347 0.171387 12.2344 0.00878906 13.5 0ZM13.5 25.3125C14.5811 25.3125 15.6226 25.1719 16.6245 24.8906C17.6265 24.6094 18.5669 24.2139 19.4458 23.7041C20.3247 23.1943 21.1245 22.5747 21.8452 21.8452C22.5659 21.1157 23.1812 20.3203 23.6909 19.459C24.2007 18.5977 24.6006 17.6572 24.8906 16.6377C25.1807 15.6182 25.3213 14.5723 25.3125 13.5C25.3125 12.4189 25.1719 11.3774 24.8906 10.3755C24.6094 9.37354 24.2139 8.43311 23.7041 7.5542C23.1943 6.67529 22.5747 5.87549 21.8452 5.15479C21.1157 4.43408 20.3203 3.81885 19.459 3.30908C18.5977 2.79932 17.6572 2.39941 16.6377 2.10938C15.6182 1.81934 14.5723 1.67871 13.5 1.6875C12.4189 1.6875 11.3774 1.82812 10.3755 2.10938C9.37354 2.39062 8.43311 2.78613 7.5542 3.2959C6.67529 3.80566 5.87549 4.42529 5.15479 5.15479C4.43408 5.88428 3.81885 6.67969 3.30908 7.54102C2.79932 8.40234 2.39941 9.34277 2.10938 10.3623C1.81934 11.3818 1.67871 12.4277 1.6875 13.5C1.6875 14.5811 1.82812 15.6226 2.10938 16.6245C2.39062 17.6265 2.78613 18.5669 3.2959 19.4458C3.80566 20.3247 4.42529 21.1245 5.15479 21.8452C5.88428 22.5659 6.67969 23.1812 7.54102 23.6909C8.40234 24.2007 9.34277 24.6006 10.3623 24.8906C11.3818 25.1807 12.4277 25.3213 13.5 25.3125ZM21.3706 13.7109L22.0034 11.8125H22.9922L21.8716 15.1875H20.8828L20.25 13.2891L19.6172 15.1875H18.6284L17.5078 11.8125H18.4966L19.1294 13.7109L19.7622 11.8125H20.7378L21.3706 13.7109ZM15.2534 11.8125H16.2422L15.1216 15.1875H14.1328L13.5 13.2891L12.8672 15.1875H11.8784L10.7578 11.8125H11.7466L12.3794 13.7109L13.0122 11.8125H13.9878L14.6206 13.7109L15.2534 11.8125ZM8.50342 11.8125H9.49219L8.37158 15.1875H7.38281L6.75 13.2891L6.11719 15.1875H5.12842L4.00781 11.8125H4.99658L5.62939 13.7109L6.26221 11.8125H7.23779L7.87061 13.7109L8.50342 11.8125Z" fill="#F5E7E1"/>
</g>
<defs>
<clipPath id="clip0_21_101">
<rect width="27" height="27" fill="white"/>
</clipPath>
</defs>
</svg>
