<svg width="157" height="156" viewBox="0 0 157 156" fill="none" xmlns="http://www.w3.org/2000/svg">
<path d="M78.56 12.9911C42.6721 12.9911 13.6046 42.0586 13.6046 77.9464C13.5968 91.5816 17.8826 104.873 25.854 115.935C33.8254 126.997 45.0776 135.269 58.0146 139.576C61.2624 140.141 62.4835 138.192 62.4835 136.484C62.4835 134.945 62.3991 129.833 62.3991 124.389C46.0823 127.397 41.8602 120.414 40.5611 116.757C39.8271 114.887 36.6638 109.125 33.9032 107.579C31.6297 106.364 28.382 103.357 33.8187 103.279C38.9372 103.195 42.5877 107.988 43.8089 109.937C49.6548 119.758 58.9889 116.998 62.7239 115.296C63.2955 111.074 64.9973 108.235 66.868 106.611C52.4154 104.987 37.3133 99.3817 37.3133 74.5363C37.3133 67.4691 39.8271 61.6296 43.9712 57.0828C43.3217 55.4589 41.0483 48.801 44.6208 39.8696C44.6208 39.8696 50.0576 38.1613 62.4835 46.521C67.7716 45.0556 73.235 44.3192 78.7224 44.332C84.2436 44.332 89.7648 45.0595 94.9612 46.521C107.387 38.0768 112.824 39.8696 112.824 39.8696C116.396 48.801 114.123 55.4589 113.473 57.0828C117.611 61.6296 120.131 67.3912 120.131 74.5363C120.131 99.4661 104.951 104.987 90.4988 106.611C92.8501 108.638 94.8832 112.535 94.8832 118.628C94.8832 127.312 94.7988 134.295 94.7988 136.491C94.7988 138.193 96.02 140.219 99.2677 139.57C112.16 135.215 123.363 126.928 131.299 115.873C139.235 104.819 143.506 91.5545 143.509 77.9464C143.509 42.0586 114.441 12.9911 78.5535 12.9911" fill="black"/>
</svg>
