<svg width="250" height="250" viewBox="0 0 250 250" fill="none" xmlns="http://www.w3.org/2000/svg">
<mask id="path-1-inside-1_160_78" fill="white">
<path fill-rule="evenodd" clip-rule="evenodd" d="M95.5695 233.493C102.202 234.89 108.918 235.702 115.643 235.932L114.5 248.5L131.5 242.269C131.5 242.269 144 237 145.5 236.5C145.627 236.458 145.899 236.354 146.296 236.203C150.588 234.571 169.378 227.427 174.074 233.202C179.204 239.51 185.246 239.904 185.246 239.904L199.611 242.269L191.631 176.433L204 174.462L202.005 160.269L199.611 138.587L194.025 94.4327C194.025 94.4327 179.288 92.0653 174.5 88.5C169.712 84.9347 168.488 83 168.488 83C166.892 86.5309 159.709 107.048 159.709 107.048C159.709 107.048 150.532 87.7136 148.936 83C148.936 83 142.552 89.3077 138.163 92.0673C133.773 94.8269 123 96.8153 123 96.8153C123 102.404 117.206 147.625 115.185 163.229C81.6537 154.095 57 123.426 57 87C57 43.3695 92.3695 8 136 8C148.345 8 160.029 10.8318 170.438 15.8812C159.066 8.03289 152.502 6.4368 135.656 4.1039C115.833 1.35875 95.6364 3.75414 77.0085 11.0597C58.3806 18.3652 41.948 30.3352 29.2909 45.8184C16.6339 61.3016 8.17825 79.7771 4.73719 99.4682C1.29613 119.159 2.98541 139.404 9.64257 158.254C16.2997 177.104 27.7008 193.927 42.7494 207.104C57.798 220.28 75.9878 229.368 95.5695 233.493ZM230 246C238.284 246 245 239.284 245 231C245 222.716 238.284 216 230 216C221.716 216 215 222.716 215 231C215 239.284 221.716 246 230 246Z"/>
</mask>
<path fill-rule="evenodd" clip-rule="evenodd" d="M95.5695 233.493C102.202 234.89 108.918 235.702 115.643 235.932L114.5 248.5L131.5 242.269C131.5 242.269 144 237 145.5 236.5C145.627 236.458 145.899 236.354 146.296 236.203C150.588 234.571 169.378 227.427 174.074 233.202C179.204 239.51 185.246 239.904 185.246 239.904L199.611 242.269L191.631 176.433L204 174.462L202.005 160.269L199.611 138.587L194.025 94.4327C194.025 94.4327 179.288 92.0653 174.5 88.5C169.712 84.9347 168.488 83 168.488 83C166.892 86.5309 159.709 107.048 159.709 107.048C159.709 107.048 150.532 87.7136 148.936 83C148.936 83 142.552 89.3077 138.163 92.0673C133.773 94.8269 123 96.8153 123 96.8153C123 102.404 117.206 147.625 115.185 163.229C81.6537 154.095 57 123.426 57 87C57 43.3695 92.3695 8 136 8C148.345 8 160.029 10.8318 170.438 15.8812C159.066 8.03289 152.502 6.4368 135.656 4.1039C115.833 1.35875 95.6364 3.75414 77.0085 11.0597C58.3806 18.3652 41.948 30.3352 29.2909 45.8184C16.6339 61.3016 8.17825 79.7771 4.73719 99.4682C1.29613 119.159 2.98541 139.404 9.64257 158.254C16.2997 177.104 27.7008 193.927 42.7494 207.104C57.798 220.28 75.9878 229.368 95.5695 233.493ZM230 246C238.284 246 245 239.284 245 231C245 222.716 238.284 216 230 216C221.716 216 215 222.716 215 231C215 239.284 221.716 246 230 246Z" fill="#1976D2"/>
<path d="M115.643 235.932L122.614 236.565L123.284 229.189L115.882 228.936L115.643 235.932ZM95.5695 233.493L94.1267 240.342L94.1267 240.342L95.5695 233.493ZM114.5 248.5L107.529 247.866L106.528 258.877L116.909 255.072L114.5 248.5ZM131.5 242.269L133.909 248.842L134.065 248.784L134.219 248.72L131.5 242.269ZM145.5 236.5L143.287 229.859L143.286 229.859L145.5 236.5ZM146.296 236.203L143.808 229.66L143.808 229.66L146.296 236.203ZM174.074 233.202L168.643 237.618L168.643 237.619L174.074 233.202ZM185.246 239.904L186.384 232.997L186.045 232.941L185.702 232.919L185.246 239.904ZM199.611 242.269L198.473 249.176L207.683 250.693L206.56 241.427L199.611 242.269ZM191.631 176.433L190.529 169.52L183.87 170.581L184.681 177.275L191.631 176.433ZM204 174.462L205.102 181.374L211.889 180.293L210.932 173.487L204 174.462ZM202.005 160.269L195.047 161.037L195.059 161.141L195.073 161.244L202.005 160.269ZM199.611 138.587L206.569 137.818L206.562 137.763L206.555 137.708L199.611 138.587ZM194.025 94.4327L200.969 93.5541L200.311 88.3529L195.135 87.5213L194.025 94.4327ZM168.488 83L174.403 79.2572L167.459 68.282L162.109 80.1167L168.488 83ZM159.709 107.048L153.386 110.05L160.689 125.436L166.316 109.361L159.709 107.048ZM148.936 83L155.566 80.755L151.977 70.1551L144.016 78.0205L148.936 83ZM123 96.8153L121.73 89.9315L116 90.989V96.8153H123ZM115.185 163.229L113.346 169.983L121.096 172.094L122.127 164.128L115.185 163.229ZM170.438 15.8812L167.383 22.1792L174.414 10.12L170.438 15.8812ZM135.656 4.1039L136.616 -2.82993L136.616 -2.82993L135.656 4.1039ZM77.0085 11.0597L79.5643 17.5764L79.5643 17.5764L77.0085 11.0597ZM29.2909 45.8184L23.8714 41.388L23.8714 41.388L29.2909 45.8184ZM4.73719 99.4682L11.6327 100.673L11.6327 100.673L4.73719 99.4682ZM9.64257 158.254L16.2431 155.923L16.2431 155.923L9.64257 158.254ZM42.7494 207.104L38.138 212.37L38.138 212.37L42.7494 207.104ZM115.882 228.936C109.561 228.719 103.247 227.956 97.0123 226.643L94.1267 240.342C101.156 241.823 108.275 242.684 115.403 242.928L115.882 228.936ZM121.471 249.134L122.614 236.565L108.671 235.298L107.529 247.866L121.471 249.134ZM129.091 235.697L112.091 241.928L116.909 255.072L133.909 248.842L129.091 235.697ZM143.286 229.859C142.22 230.215 138.362 231.812 135.246 233.11C133.582 233.804 131.966 234.48 130.767 234.984C130.167 235.236 129.671 235.444 129.325 235.59C129.152 235.663 129.016 235.72 128.924 235.759C128.877 235.778 128.842 235.793 128.818 235.803C128.806 235.808 128.797 235.812 128.79 235.815C128.787 235.816 128.785 235.817 128.783 235.818C128.783 235.818 128.782 235.818 128.782 235.819C128.781 235.819 128.781 235.819 128.781 235.819C128.781 235.819 128.781 235.819 131.5 242.269C134.219 248.72 134.219 248.72 134.219 248.72C134.219 248.72 134.219 248.719 134.22 248.719C134.22 248.719 134.22 248.719 134.221 248.719C134.223 248.718 134.225 248.717 134.228 248.716C134.234 248.713 134.242 248.71 134.254 248.705C134.277 248.695 134.312 248.68 134.358 248.661C134.449 248.623 134.583 248.566 134.755 248.494C135.098 248.35 135.591 248.142 136.186 247.892C137.378 247.392 138.981 246.721 140.629 246.034C142.28 245.346 143.965 244.648 145.325 244.093C146.006 243.816 146.591 243.579 147.042 243.401C147.558 243.197 147.739 243.132 147.714 243.141L143.286 229.859ZM143.808 229.66C143.604 229.738 143.455 229.795 143.341 229.837C143.285 229.858 143.251 229.871 143.232 229.878C143.205 229.887 143.232 229.877 143.287 229.859L147.713 243.141C148.019 243.039 148.489 242.859 148.783 242.746L143.808 229.66ZM179.505 228.785C176.415 224.986 171.802 224.159 168.684 224.013C165.312 223.855 161.706 224.397 158.543 225.086C152.156 226.477 145.946 228.847 143.808 229.66L148.783 242.746C150.938 241.927 156.269 239.91 161.523 238.765C164.182 238.186 166.422 237.922 168.028 237.998C169.887 238.085 169.385 238.531 168.643 237.618L179.505 228.785ZM185.246 239.904C185.702 232.919 185.705 232.919 185.709 232.919C185.71 232.919 185.713 232.919 185.715 232.92C185.719 232.92 185.724 232.92 185.728 232.92C185.736 232.921 185.744 232.922 185.752 232.922C185.767 232.923 185.781 232.924 185.794 232.925C185.819 232.927 185.839 232.929 185.855 232.931C185.886 232.934 185.897 232.935 185.891 232.935C185.879 232.933 185.797 232.922 185.658 232.893C185.377 232.834 184.88 232.706 184.251 232.447C183.019 231.939 181.233 230.911 179.505 228.785L168.643 237.619C172.044 241.801 175.844 244.124 178.916 245.39C180.439 246.018 181.774 246.383 182.786 246.595C183.294 246.701 183.724 246.77 184.062 246.815C184.231 246.837 184.378 246.853 184.499 246.865C184.56 246.871 184.615 246.876 184.664 246.88C184.688 246.882 184.711 246.883 184.732 246.885C184.743 246.886 184.753 246.886 184.763 246.887C184.767 246.887 184.772 246.888 184.777 246.888C184.779 246.888 184.783 246.888 184.784 246.889C184.787 246.889 184.791 246.889 185.246 239.904ZM200.748 235.362L186.384 232.997L184.109 246.811L198.473 249.176L200.748 235.362ZM184.681 177.275L192.662 243.112L206.56 241.427L198.58 175.59L184.681 177.275ZM202.898 167.549L190.529 169.52L192.732 183.345L205.102 181.374L202.898 167.549ZM195.073 161.244L197.068 175.436L210.932 173.487L208.937 159.295L195.073 161.244ZM192.653 139.355L195.047 161.037L208.963 159.501L206.569 137.818L192.653 139.355ZM187.08 95.3113L192.666 139.465L206.555 137.708L200.969 93.5541L187.08 95.3113ZM170.319 94.1145C172.392 95.6576 175.03 96.7539 177.247 97.534C179.605 98.3642 182.144 99.0576 184.41 99.6066C186.693 100.16 188.803 100.591 190.336 100.883C191.106 101.03 191.738 101.143 192.183 101.221C192.405 101.259 192.582 101.289 192.706 101.31C192.768 101.32 192.816 101.328 192.851 101.334C192.869 101.337 192.883 101.339 192.894 101.341C192.899 101.342 192.903 101.342 192.907 101.343C192.908 101.343 192.91 101.343 192.911 101.344C192.912 101.344 192.913 101.344 192.913 101.344C192.914 101.344 192.914 101.344 194.025 94.4327C195.135 87.5213 195.135 87.5214 195.136 87.5215C195.136 87.5215 195.137 87.5216 195.137 87.5216C195.137 87.5217 195.137 87.5217 195.137 87.5217C195.137 87.5217 195.136 87.5215 195.134 87.5212C195.131 87.5206 195.124 87.5195 195.113 87.5177C195.092 87.5143 195.058 87.5086 195.01 87.5008C194.916 87.485 194.771 87.4605 194.581 87.4275C194.202 87.3615 193.645 87.2618 192.958 87.1309C191.579 86.868 189.705 86.4844 187.706 86.0001C185.69 85.5116 183.646 84.9446 181.895 84.3282C180.001 83.6617 179.002 83.1251 178.681 82.8855L170.319 94.1145ZM168.488 83C162.572 86.7428 162.574 86.7455 162.576 86.7482C162.576 86.7492 162.578 86.7519 162.579 86.7537C162.582 86.7573 162.584 86.761 162.586 86.7647C162.591 86.7721 162.596 86.7796 162.601 86.7872C162.61 86.8024 162.62 86.8179 162.631 86.8339C162.652 86.8658 162.674 86.8993 162.698 86.9343C162.745 87.0043 162.797 87.0805 162.856 87.1628C162.974 87.3274 163.116 87.5165 163.287 87.7296C163.627 88.1557 164.082 88.6788 164.682 89.2954C165.881 90.5267 167.671 92.1427 170.319 94.1145L178.681 82.8855C176.541 81.2921 175.325 80.158 174.714 79.5306C174.41 79.2179 174.259 79.0345 174.221 78.9864C174.202 78.9625 174.211 78.9726 174.243 79.0174C174.259 79.0399 174.281 79.071 174.308 79.1109C174.321 79.1309 174.336 79.1531 174.352 79.1774C174.36 79.1896 174.368 79.2024 174.377 79.2157C174.381 79.2223 174.385 79.2291 174.39 79.236C174.392 79.2395 174.394 79.243 174.396 79.2465C174.397 79.2483 174.399 79.2509 174.4 79.2518C174.401 79.2545 174.403 79.2572 168.488 83ZM159.709 107.048C166.316 109.361 166.316 109.361 166.316 109.361C166.316 109.361 166.316 109.36 166.317 109.36C166.317 109.36 166.317 109.359 166.317 109.358C166.318 109.355 166.319 109.352 166.321 109.347C166.325 109.337 166.33 109.323 166.336 109.304C166.35 109.265 166.37 109.208 166.396 109.133C166.449 108.983 166.526 108.762 166.625 108.48C166.824 107.914 167.11 107.102 167.458 106.117C168.154 104.144 169.097 101.48 170.09 98.7083C172.146 92.9685 174.217 87.3193 174.866 85.8833L162.109 80.1167C161.162 82.2117 158.844 88.5865 156.91 93.988C155.908 96.7867 154.956 99.4725 154.256 101.458C153.905 102.45 153.617 103.269 153.417 103.839C153.317 104.125 153.238 104.348 153.185 104.501C153.158 104.577 153.138 104.635 153.124 104.675C153.117 104.694 153.112 104.709 153.108 104.72C153.106 104.725 153.105 104.729 153.104 104.731C153.103 104.732 153.103 104.733 153.103 104.734C153.103 104.734 153.103 104.735 153.103 104.735C153.103 104.735 153.102 104.735 159.709 107.048ZM142.306 85.245C143.251 88.0369 146.143 94.4579 148.561 99.7163C149.818 102.449 151.023 105.031 151.914 106.928C152.359 107.877 152.726 108.655 152.982 109.198C153.111 109.469 153.211 109.681 153.279 109.826C153.314 109.898 153.34 109.954 153.358 109.991C153.367 110.01 153.374 110.025 153.378 110.034C153.381 110.039 153.382 110.043 153.384 110.046C153.384 110.047 153.385 110.048 153.385 110.049C153.385 110.049 153.385 110.049 153.385 110.049C153.386 110.05 153.386 110.05 159.709 107.048C166.033 104.046 166.033 104.046 166.033 104.046C166.033 104.046 166.033 104.046 166.033 104.046C166.033 104.045 166.032 104.045 166.032 104.044C166.031 104.041 166.029 104.038 166.027 104.034C166.023 104.025 166.017 104.011 166.008 103.994C165.991 103.958 165.966 103.904 165.932 103.834C165.866 103.693 165.767 103.485 165.641 103.218C165.389 102.685 165.027 101.917 164.587 100.979C163.707 99.1036 162.518 96.5568 161.281 93.8669C158.711 88.2797 156.217 82.6767 155.566 80.755L142.306 85.245ZM141.888 97.9933C144.625 96.273 147.695 93.6585 149.867 91.712C151.002 90.6942 151.99 89.7708 152.694 89.101C153.047 88.7652 153.331 88.491 153.53 88.298C153.629 88.2014 153.708 88.125 153.763 88.0711C153.79 88.0442 153.812 88.0229 153.827 88.0075C153.835 87.9998 153.841 87.9936 153.846 87.989C153.849 87.9866 153.851 87.9847 153.852 87.9831C153.853 87.9823 153.854 87.9816 153.854 87.981C153.855 87.9807 153.855 87.9803 153.855 87.9802C153.855 87.9798 153.856 87.9795 148.936 83C144.016 78.0205 144.016 78.0202 144.017 78.02C144.017 78.0199 144.017 78.0197 144.017 78.0196C144.017 78.0194 144.017 78.0193 144.017 78.0192C144.017 78.0192 144.017 78.0195 144.016 78.0202C144.015 78.0216 144.012 78.0245 144.008 78.0289C143.999 78.0375 143.984 78.052 143.964 78.0719C143.923 78.1118 143.86 78.1736 143.776 78.2549C143.609 78.4176 143.36 78.6577 143.046 78.9564C142.416 79.5556 141.533 80.3815 140.524 81.2857C138.406 83.1829 136.09 85.102 134.437 86.1413L141.888 97.9933ZM123 96.8153C124.27 103.699 124.271 103.699 124.272 103.699C124.272 103.699 124.273 103.699 124.273 103.698C124.274 103.698 124.276 103.698 124.277 103.698C124.28 103.697 124.284 103.697 124.288 103.696C124.296 103.694 124.307 103.692 124.321 103.69C124.348 103.685 124.385 103.678 124.432 103.669C124.526 103.651 124.658 103.625 124.825 103.592C125.159 103.527 125.631 103.431 126.209 103.308C127.359 103.063 128.948 102.705 130.695 102.251C133.87 101.427 138.661 100.023 141.888 97.9933L134.437 86.1413C133.275 86.8714 130.484 87.8416 127.176 88.7009C125.681 89.0892 124.302 89.4005 123.295 89.6148C122.794 89.7214 122.39 89.8028 122.118 89.8566C121.981 89.8834 121.878 89.9033 121.812 89.9159C121.779 89.9222 121.755 89.9267 121.741 89.9293C121.734 89.9306 121.73 89.9315 121.728 89.9318C121.727 89.932 121.726 89.9321 121.727 89.932C121.727 89.932 121.727 89.9319 121.728 89.9319C121.728 89.9318 121.728 89.9317 121.728 89.9317C121.729 89.9316 121.73 89.9315 123 96.8153ZM122.127 164.128C123.139 156.321 125.095 141.094 126.799 127.114C127.651 120.126 128.442 113.428 129.022 108.115C129.576 103.032 130 98.6896 130 96.8153H116C116 97.7353 115.699 101.142 115.104 106.597C114.534 111.822 113.751 118.453 112.902 125.42C111.204 139.348 109.253 154.533 108.243 162.33L122.127 164.128ZM50 87C50 126.664 76.8454 160.04 113.346 169.983L117.025 156.475C86.4619 148.149 64 120.189 64 87H50ZM136 1C88.5035 1 50 39.5035 50 87H64C64 47.2355 96.2355 15 136 15V1ZM173.493 9.58319C162.153 4.08183 149.427 1 136 1V15C147.264 15 157.906 17.5817 167.383 22.1792L173.493 9.58319ZM134.695 11.0377C143.137 12.2067 148.43 13.124 152.945 14.5845C157.287 15.9889 161.157 17.9814 166.462 21.6424L174.414 10.12C168.347 5.93267 163.248 3.20297 157.254 1.264C151.433 -0.618756 145.021 -1.66601 136.616 -2.82993L134.695 11.0377ZM79.5643 17.5764C97.0751 10.709 116.061 8.45713 134.695 11.0377L136.616 -2.82993C115.605 -5.73962 94.1977 -3.2007 74.4528 4.54294L79.5643 17.5764ZM34.7105 50.2487C46.6073 35.6956 62.0535 24.4439 79.5643 17.5764L74.4528 4.54293C54.7078 12.2866 37.2887 24.9747 23.8714 41.388L34.7105 50.2487ZM11.6327 100.673C14.8668 82.1667 22.8139 64.8018 34.7105 50.2487L23.8714 41.388C10.4539 57.8014 1.48975 77.3876 -2.15831 98.2632L11.6327 100.673ZM16.2431 155.923C9.98625 138.206 8.39863 119.18 11.6327 100.673L-2.15831 98.2632C-5.80638 119.139 -4.01544 140.601 3.04209 160.585L16.2431 155.923ZM47.3608 201.837C33.2157 189.452 22.4999 173.64 16.2431 155.923L3.04209 160.585C10.0996 180.569 22.186 198.402 38.138 212.37L47.3608 201.837ZM97.0123 226.643C78.6045 222.766 61.5059 214.223 47.3608 201.837L38.138 212.37C54.09 226.338 73.3711 235.971 94.1267 240.342L97.0123 226.643ZM238 231C238 235.418 234.418 239 230 239V253C242.15 253 252 243.15 252 231H238ZM230 223C234.418 223 238 226.582 238 231H252C252 218.85 242.15 209 230 209V223ZM222 231C222 226.582 225.582 223 230 223V209C217.85 209 208 218.85 208 231H222ZM230 239C225.582 239 222 235.418 222 231H208C208 243.15 217.85 253 230 253V239Z" fill="black" mask="url(#path-1-inside-1_160_78)"/>
<circle cx="157" cy="57" r="11.5" fill="white" stroke="black" stroke-width="7"/>
</svg>
