<svg width="250" height="250" viewBox="0 0 250 250" fill="none" xmlns="http://www.w3.org/2000/svg">
<g clip-path="url(#clip0_145_2)">
<path fill-rule="evenodd" clip-rule="evenodd" d="M0 125C0 55.9644 55.9644 0 125 0H135H240H250V10V240V250H240H135H125C55.9644 250 0 194.036 0 125ZM188.5 173C212.337 173 232.6 157.696 240 136.378V240H135V128.946C139.873 154.048 161.973 173 188.5 173ZM240 10V100.622C232.6 79.3037 212.337 64 188.5 64C161.973 64 139.873 82.9519 135 108.054V10H240ZM231.664 118.936C231.664 142.534 212.534 161.664 188.936 161.664C165.338 161.664 146.208 142.534 146.208 118.936C146.208 95.338 165.338 76.208 188.936 76.208C212.534 76.208 231.664 95.338 231.664 118.936ZM219.5 230C226.404 230 232 224.404 232 217.5C232 210.596 226.404 205 219.5 205C212.596 205 207 210.596 207 217.5C207 224.404 212.596 230 219.5 230Z" fill="#343434"/>
</g>
<defs>
<clipPath id="clip0_145_2">
<rect width="250" height="250" fill="white"/>
</clipPath>
</defs>
</svg>
