<svg width="53" height="53" viewBox="0 0 53 53" fill="none" xmlns="http://www.w3.org/2000/svg">
<path d="M26.5 31.2203C29.1069 31.2203 31.2203 29.107 31.2203 26.5C31.2203 23.8931 29.1069 21.7797 26.5 21.7797C23.893 21.7797 21.7797 23.8931 21.7797 26.5C21.7797 29.107 23.893 31.2203 26.5 31.2203Z" fill="#009A9C"/>
<path d="M44.4289 18.7156C43.518 18.3844 42.5656 18.0531 41.5719 17.7633C41.8203 16.7695 42.0273 15.7758 42.193 14.8234C43.0625 9.35782 42.1101 5.50704 39.4602 4.01641C38.6734 3.56094 37.8039 3.35391 36.8102 3.35391C33.9117 3.35391 30.2266 5.50704 26.5 9.10938C22.7734 5.50704 19.0883 3.35391 16.1898 3.35391C15.1961 3.35391 14.3266 3.56094 13.5398 4.01641C10.8898 5.54844 9.93749 9.39922 10.807 14.8234C10.9727 15.7758 11.1797 16.7695 11.4281 17.7633C10.4344 18.0531 9.48203 18.343 8.57109 18.7156C3.39531 20.7031 0.579681 23.4359 0.579681 26.5C0.579681 29.5641 3.43671 32.2969 8.57109 34.2844C9.48203 34.6156 10.4344 34.9469 11.4281 35.2367C11.1797 36.2305 10.9727 37.2242 10.807 38.1766C9.93749 43.6422 10.8898 47.493 13.5398 48.9836C14.3266 49.4391 15.1961 49.6461 16.1898 49.6461C19.1297 49.6461 22.8148 47.493 26.5 43.8906C30.2266 47.493 33.9117 49.6461 36.8102 49.6461C37.8039 49.6461 38.6734 49.4391 39.4602 48.9836C42.1101 47.4516 43.0625 43.6008 42.193 38.1766C42.0273 37.2242 41.8203 36.2305 41.5719 35.2367C42.5656 34.9469 43.518 34.657 44.4289 34.2844C49.6047 32.2969 52.4203 29.5641 52.4203 26.5C52.4203 23.4359 49.6047 20.7031 44.4289 18.7156ZM38.3008 6.08672C39.9984 7.08047 40.5781 10.1445 39.8742 14.4922C39.75 15.3617 39.543 16.2727 39.2945 17.225C37.1414 16.7281 34.8641 16.3969 32.4625 16.1898C31.0547 14.2023 29.6055 12.4219 28.1562 10.807C31.2203 7.78438 34.3258 5.71407 36.8516 5.71407C37.3898 5.71407 37.8867 5.83829 38.3008 6.08672ZM33.6633 30.6406C32.918 31.9656 32.0484 33.2906 31.1375 34.6156C29.6055 34.7399 28.0734 34.7813 26.5 34.7813C24.8851 34.7813 23.3531 34.7399 21.8625 34.6156C20.9516 33.2906 20.1234 31.9656 19.3781 30.6406C18.5914 29.2742 17.8461 27.8664 17.1836 26.5C17.8461 25.1336 18.5914 23.7258 19.3781 22.3594C20.1234 21.0344 20.993 19.7094 21.9039 18.3844C23.4359 18.2602 24.968 18.2188 26.5414 18.2188C28.1562 18.2188 29.6883 18.2602 31.1789 18.3844C32.0898 19.7094 32.918 21.0344 33.6633 22.3594C34.45 23.7258 35.1953 25.1336 35.8578 26.5C35.1539 27.8664 34.45 29.2328 33.6633 30.6406ZM37.1 29.2742C37.7211 30.7234 38.218 32.1313 38.6734 33.5391C37.2656 33.8703 35.775 34.1188 34.2016 34.3258C34.6984 33.5391 35.2367 32.7109 35.6922 31.8414C36.1891 30.9719 36.6445 30.1024 37.1 29.2742ZM26.5 40.4953C25.5062 39.4188 24.5539 38.2594 23.643 37.0586C24.5953 37.1 25.5476 37.1414 26.5 37.1414C27.4523 37.1414 28.4047 37.1 29.357 37.0586C28.4461 38.2594 27.4937 39.4188 26.5 40.4953ZM18.7984 34.2844C17.225 34.0774 15.7344 33.8289 14.3266 33.4977C14.782 32.1313 15.2789 30.682 15.9 29.2328C16.3555 30.0609 16.8109 30.9305 17.3078 31.7586C17.8047 32.6695 18.3016 33.4563 18.7984 34.2844ZM15.9 23.7258C15.2789 22.2766 14.782 20.8688 14.3266 19.4609C15.7344 19.1297 17.225 18.8813 18.7984 18.6742C18.3016 19.4609 17.7633 20.2891 17.3078 21.1586C16.8109 22.0281 16.3555 22.8977 15.9 23.7258ZM26.5 12.5047C27.4937 13.5813 28.4461 14.7406 29.357 15.9414C28.4047 15.9 27.4523 15.8586 26.5 15.8586C25.5476 15.8586 24.5953 15.9 23.643 15.9414C24.5539 14.7406 25.5062 13.5813 26.5 12.5047ZM35.6922 21.2L34.2016 18.7156C35.775 18.9227 37.2656 19.1711 38.6734 19.5024C38.218 20.8688 37.7211 22.318 37.1 23.7672C36.6445 22.8977 36.1891 22.0281 35.6922 21.2ZM13.1258 14.4922C12.4219 10.1445 13.0016 7.08047 14.6992 6.08672C15.1133 5.83829 15.6101 5.71407 16.1484 5.71407C18.6328 5.71407 21.7383 7.74298 24.8437 10.807C23.3945 12.3805 21.9453 14.2023 20.5375 16.1898C18.1359 16.3969 15.8586 16.7695 13.7055 17.225C13.457 16.2727 13.2914 15.3617 13.1258 14.4922ZM2.89843 26.5C2.89843 24.5539 5.25859 22.4836 9.39921 20.9516C10.2273 20.6203 11.1383 20.3305 12.0492 20.082C12.7117 22.1524 13.5398 24.3469 14.5336 26.5414C13.5398 28.7359 12.6703 30.8891 12.0492 32.9594C6.33515 31.3031 2.89843 28.8188 2.89843 26.5ZM14.6992 46.9133C13.0016 45.9195 12.4219 42.8555 13.1258 38.5078C13.25 37.6383 13.457 36.7274 13.7055 35.775C15.8586 36.2719 18.1359 36.6031 20.5375 36.8102C21.9453 38.7977 23.3945 40.5781 24.8437 42.193C21.7797 45.2156 18.6742 47.2859 16.1484 47.2859C15.6101 47.2859 15.1133 47.1617 14.6992 46.9133ZM39.8742 38.5078C40.5781 42.8555 39.9984 45.9195 38.3008 46.9133C37.8867 47.1617 37.3898 47.2859 36.8516 47.2859C34.3672 47.2859 31.2617 45.257 28.1562 42.193C29.6055 40.6195 31.0547 38.7977 32.4625 36.8102C34.8641 36.6031 37.1414 36.2305 39.2945 35.775C39.543 36.7274 39.7086 37.6383 39.8742 38.5078ZM43.6008 32.0484C42.7727 32.3797 41.8617 32.6695 40.9508 32.918C40.2883 30.8477 39.4602 28.6531 38.4664 26.4586C39.4602 24.2641 40.3297 22.1109 40.9508 20.0406C46.6648 21.6969 50.1016 24.1813 50.1016 26.5C50.1016 28.4461 47.7 30.5164 43.6008 32.0484Z" fill="#009A9C"/>
</svg>
