<svg width="53" height="53" viewBox="0 0 53 53" fill="none" xmlns="http://www.w3.org/2000/svg">
<path d="M26.4901 4.96875C25.8855 4.96875 25.281 5.11781 24.7593 5.41594L8.3475 14.8897C7.2875 15.5025 6.625 16.6619 6.625 17.8875V35.0794C6.625 36.3216 7.2875 37.4644 8.3475 38.0772L12.6537 40.5616C14.7406 41.5884 15.4859 41.5884 16.43 41.5884C19.5272 41.5884 21.2994 39.7169 21.2994 36.4706V18.7322C21.2994 18.6048 21.2488 18.4826 21.1587 18.3926C21.0686 18.3025 20.9464 18.2519 20.8191 18.2519H18.7487C18.6854 18.251 18.6226 18.2628 18.5639 18.2866C18.5052 18.3104 18.4519 18.3458 18.4071 18.3906C18.3624 18.4353 18.327 18.4887 18.3032 18.5473C18.2794 18.606 18.2675 18.6689 18.2684 18.7322V36.4541C18.2684 37.9116 16.7612 39.3359 14.3266 38.1269L9.82156 35.5266C9.74077 35.4833 9.67337 35.4188 9.62665 35.34C9.57994 35.2611 9.5557 35.171 9.55656 35.0794V17.9041C9.55656 17.7053 9.65594 17.5397 9.82156 17.4403L26.235 7.96656C26.3118 7.91799 26.4008 7.8922 26.4917 7.8922C26.5826 7.8922 26.6716 7.91799 26.7484 7.96656L43.1619 17.4403C43.3275 17.5397 43.4269 17.7053 43.4269 17.8875V35.0794C43.4269 35.2616 43.3275 35.4438 43.1784 35.5266L26.7484 45.0169C26.669 45.0576 26.581 45.0788 26.4917 45.0788C26.4024 45.0788 26.3145 45.0576 26.235 45.0169L22.0116 42.5159C21.9548 42.4742 21.8877 42.449 21.8175 42.4432C21.7473 42.4373 21.6769 42.4511 21.6141 42.4828C20.4381 43.1453 20.2228 43.2281 19.1297 43.6091C18.8647 43.6919 18.4506 43.8575 19.2788 44.3213L24.7609 47.5675C25.2909 47.8656 25.8872 48.0312 26.4834 48.0312C27.0962 48.0312 27.6925 47.8656 28.2225 47.5675L44.6525 38.0772C45.7125 37.4644 46.375 36.3216 46.375 35.0794V17.9041C46.375 16.6619 45.7125 15.5191 44.6525 14.9062L28.2225 5.41594C27.6991 5.11781 27.0963 4.96875 26.4901 4.96875ZM30.9056 18.2287C26.2184 18.2287 23.4194 20.2162 23.4194 23.5287C23.4194 27.1228 26.2019 28.1132 30.7069 28.5604C36.0897 29.0904 36.5038 29.8887 36.5038 30.9487C36.5038 32.7706 35.0297 33.549 31.5681 33.549C27.2122 33.549 26.2516 32.4542 25.9369 30.3011C25.9208 30.1899 25.865 30.0883 25.7797 30.0152C25.6944 29.9421 25.5855 29.9024 25.4731 29.9036H23.3366C23.2136 29.9036 23.0956 29.9525 23.0086 30.0394C22.9217 30.1264 22.8728 30.2443 22.8728 30.3673C22.8728 33.1333 24.38 36.4292 31.5681 36.4292C36.7687 36.4292 39.75 34.3755 39.75 30.798C39.75 27.2536 37.3484 26.3095 32.3134 25.6305C27.1956 24.968 26.6822 24.6202 26.6822 23.4277C26.6822 22.4339 27.1294 21.1255 30.9056 21.1255C34.2678 21.1255 35.5266 21.8542 36.04 24.1233C36.0897 24.3386 36.2719 24.5042 36.5038 24.5042H38.6403C38.7728 24.5042 38.8888 24.438 38.9881 24.3386C39.0332 24.2902 39.067 24.2324 39.087 24.1694C39.107 24.1064 39.1129 24.0397 39.1041 23.9742C38.7728 20.0655 36.1725 18.2287 30.9056 18.2287Z" fill="white"/>
</svg>
