<svg width="157" height="156" viewBox="0 0 157 156" fill="none" xmlns="http://www.w3.org/2000/svg">
<g clip-path="url(#clip0_37_37)">
<path fill-rule="evenodd" clip-rule="evenodd" d="M117.723 19.4866C122.891 19.4866 127.848 21.5396 131.502 25.1941C135.157 28.8485 137.21 33.805 137.21 38.9732V116.92C137.21 122.088 135.157 127.044 131.502 130.699C127.848 134.353 122.891 136.406 117.723 136.406H39.7767C34.6085 136.406 29.652 134.353 25.9976 130.699C22.3431 127.044 20.2901 122.088 20.2901 116.92V38.9732C20.2901 33.805 22.3431 28.8485 25.9976 25.1941C29.652 21.5396 34.6085 19.4866 39.7767 19.4866H117.723ZM52.7678 64.9553C51.045 64.9553 49.3929 65.6397 48.1747 66.8578C46.9566 68.076 46.2722 69.7281 46.2722 71.4508V103.929C46.2722 105.651 46.9566 107.303 48.1747 108.522C49.3929 109.74 51.045 110.424 52.7678 110.424C54.4905 110.424 56.1427 109.74 57.3608 108.522C58.579 107.303 59.2633 105.651 59.2633 103.929V71.4508C59.2633 69.7281 58.579 68.076 57.3608 66.8578C56.1427 65.6397 54.4905 64.9553 52.7678 64.9553ZM72.2544 58.4598C70.5317 58.4598 68.8795 59.1441 67.6613 60.3623C66.4432 61.5804 65.7588 63.2326 65.7588 64.9553V103.929C65.7588 105.651 66.4432 107.303 67.6613 108.522C68.8795 109.74 70.5317 110.424 72.2544 110.424C73.9771 110.424 75.6293 109.74 76.8474 108.522C78.0656 107.303 78.7499 105.651 78.7499 103.929V80.1549C80.731 77.9204 84.0762 75.2962 87.7982 73.7048C89.9612 72.7824 93.2155 72.4057 95.4759 73.1202C96.2258 73.3104 96.8937 73.739 97.3791 74.3414C97.7169 74.796 98.2365 75.8094 98.2365 77.9464V103.929C98.2365 105.651 98.9209 107.303 100.139 108.522C101.357 109.74 103.009 110.424 104.732 110.424C106.455 110.424 108.107 109.74 109.325 108.522C110.543 107.303 111.228 105.651 111.228 103.929V77.9464C111.228 73.5944 110.123 69.723 107.824 66.6182C105.708 63.8027 102.747 61.7382 99.3732 60.7267C93.5143 58.8885 87.0252 59.9083 82.6927 61.766C81.3045 62.3601 79.9532 63.0369 78.646 63.7926C78.3737 62.296 77.5847 60.9424 76.4167 59.9678C75.2486 58.9932 73.7756 58.4595 72.2544 58.4598ZM52.7678 45.4687C51.045 45.4687 49.3929 46.1531 48.1747 47.3712C46.9566 48.5894 46.2722 50.2415 46.2722 51.9642C46.2722 53.687 46.9566 55.3391 48.1747 56.5573C49.3929 57.7754 51.045 58.4598 52.7678 58.4598C54.4905 58.4598 56.1427 57.7754 57.3608 56.5573C58.579 55.3391 59.2633 53.687 59.2633 51.9642C59.2633 50.2415 58.579 48.5894 57.3608 47.3712C56.1427 46.1531 54.4905 45.4687 52.7678 45.4687Z" fill="#595959"/>
</g>
<defs>
<clipPath id="clip0_37_37">
<rect width="155.893" height="155.893" fill="white" transform="translate(0.803497)"/>
</clipPath>
</defs>
</svg>
