<svg width="47" height="47" viewBox="0 0 47 47" fill="none" xmlns="http://www.w3.org/2000/svg">
<g clip-path="url(#clip0_130_44)">
<path d="M47 36.4015C46.316 36.6602 45.5609 36.6597 44.8772 36.3999C44.1936 36.1402 43.6286 35.6392 43.289 34.9915L36.5327 25.6483L35.5536 24.3421L27.7144 35.0033C27.3951 35.6238 26.8608 36.1067 26.2113 36.3619C25.5619 36.6171 24.8417 36.627 24.1854 36.3898L34.2865 22.8381L24.8904 10.5965C25.5661 10.3531 26.3049 10.3498 26.9826 10.5874C27.6604 10.825 28.2355 11.2888 28.6113 11.9008L35.6143 21.3595L42.6564 11.94C42.9781 11.3305 43.5126 10.8605 44.1582 10.6193C44.8037 10.3781 45.5154 10.3826 46.1579 10.6318L42.5115 15.4708L37.5726 21.9C37.4354 22.0224 37.3257 22.1724 37.2505 22.3401C37.1754 22.5078 37.1366 22.6895 37.1366 22.8733C37.1366 23.0571 37.1754 23.2389 37.2505 23.4066C37.3257 23.5743 37.4354 23.7243 37.5726 23.8466L46.9804 36.4035L47 36.4015ZM0.00394016 22.6697L0.82644 18.6061C3.08636 10.5711 12.2984 7.22821 18.6355 12.2024C22.3466 15.1183 23.2729 19.2465 23.0907 23.8995H2.18552C1.84673 32.2087 7.84315 37.226 15.51 34.6625C16.7529 34.2151 17.8654 33.4664 18.7478 32.4835C19.6303 31.5006 20.2552 30.3141 20.5664 29.0303C20.9718 27.7261 21.6396 27.5028 22.8655 27.8788C22.6612 29.4698 22.0989 30.9936 21.2207 32.3358C20.3425 33.6781 19.1714 34.8037 17.7954 35.628C15.5226 36.8712 12.9149 37.3639 10.3452 37.0358C7.77543 36.7076 5.37525 35.5753 3.48782 33.8008C1.62158 31.7003 0.493673 29.047 0.276149 26.2456C0.276149 25.7854 0.119482 25.3545 0.0137318 24.9413C0.00419872 24.1848 -0.000370824 23.4282 2.34927e-05 22.6716L0.00394016 22.6697ZM2.21098 22.1096H21.1167C20.9992 16.0858 17.1981 11.8127 12.128 11.7735C6.48406 11.6952 2.44598 15.8743 2.19727 22.0822L2.21098 22.1096Z" fill="white"/>
</g>
<defs>
<clipPath id="clip0_130_44">
<rect width="47" height="47" fill="white"/>
</clipPath>
</defs>
</svg>
